<?xml version="1.0" encoding="UTF-8"?>
<svg version="1.1" xmlns="http://www.w3.org/2000/svg" width="801" height="801">
<path d="M0 0 C7.68912241 2.91633187 15.11609259 6.32944768 22.54101562 9.85351562 C34.47663026 15.51572508 46.46216711 21.05885867 58.5 26.5 C70.03319814 31.71551342 81.51603249 37.0276924 92.96456909 42.42642212 C100.6517524 46.05019026 108.35503683 49.63271542 116.09765625 53.13671875 C116.85057953 53.477565 117.60350281 53.81841125 118.37924194 54.16958618 C122.01000497 55.81158732 125.64310553 57.44818183 129.27929688 59.078125 C130.59377223 59.6705236 131.90822645 60.2629691 133.22265625 60.85546875 C134.36484619 61.36746826 135.50703613 61.87946777 136.68383789 62.40698242 C140.23930983 64.11495963 143.5983312 66.00586244 147 68 C145.5583206 72.43906935 143.11219305 75.50309917 140.0625 78.9375 C136.14606706 83.45284096 132.34957757 88.02594026 128.6875 92.75 C124.5476492 98.07630343 120.30402033 103.30553295 116 108.5 C111.19538056 114.30079462 106.47793116 120.15692819 101.84521484 126.09570312 C96.0479441 133.52001258 90.04913765 140.78006151 84 148 C85.66077299 152.14689982 88.65980945 155.06716167 91.6875 158.25 C92.78201327 159.41725351 93.87576745 160.58521929 94.96875 161.75390625 C95.4946875 162.31480957 96.020625 162.87571289 96.5625 163.45361328 C98.86621497 165.9318284 101.07932331 168.48461939 103.29296875 171.04296875 C105.33633431 173.3855915 107.41680859 175.69273422 109.5 178 C112.76390848 181.61676345 115.98790949 185.26389608 119.1875 188.9375 C121.27211164 191.30964429 123.38428644 193.65556065 125.5 196 C131.63536667 202.81244448 137.60878043 209.57473055 143 217 C138.51326688 216.32858222 134.59236721 214.6762659 130.47265625 212.859375 C129.7412291 212.54151535 129.00980194 212.2236557 128.25621033 211.89616394 C125.85629491 210.85199315 123.45943822 209.80098481 121.0625 208.75 C119.369354 208.01196147 117.67599181 207.27441873 115.98242188 206.53735352 C112.56685019 205.05017877 109.15234784 203.56059204 105.73876953 202.06884766 C99.49914985 199.34302661 93.24948138 196.64062713 87 193.9375 C84.60273266 192.89874043 82.20557238 191.85973776 79.80859375 190.8203125 C78.83785416 190.39937065 78.83785416 190.39937065 77.84750366 189.96992493 C66.58512038 185.08576585 55.32380782 180.19913809 44.0625 175.3125 C42.94286865 174.8266745 41.8232373 174.340849 40.66967773 173.84030151 C25.4436524 167.23330008 10.2202826 160.62022035 -5 154 C-5 150 -5 150 -3.05859375 147.703125 C-2.19363281 146.89359375 -1.32867187 146.0840625 -0.4375 145.25 C2.57572948 142.35847477 5.50897069 139.51691857 8.1875 136.3125 C11.73804374 132.15183896 15.61659522 128.34586129 19.5 124.5 C25.17500508 118.9145579 25.17500508 118.9145579 30.5 113 C34.53403537 108.20958299 39.07231149 103.90419286 43.51806641 99.50146484 C47.3006952 95.74146958 50.93045793 91.93001853 54.37109375 87.8515625 C57.71680555 84.04852319 61.38316877 80.54301835 65 77 C63.76751873 73.47089511 62.55771197 71.21912568 59.8125 68.6875 C56.64206198 65.65433868 53.74762171 62.48883503 50.8828125 59.16796875 C48.7842468 56.75157049 46.645603 54.37470976 44.5 52 C41.82951656 49.04130249 39.17701942 46.07073528 36.5625 43.0625 C33.75177475 39.83440488 30.884201 36.66261557 28 33.5 C16.81818182 21.22727273 16.81818182 21.22727273 14 17 C12.02252878 16.63702064 12.02252878 16.63702064 9.875 16.8125 C8.59625 16.874375 7.3175 16.93625 6 17 C6.73605469 17.79664063 7.47210938 18.59328125 8.23046875 19.4140625 C9.21621999 20.4843067 10.20189288 21.55462307 11.1875 22.625 C11.91163086 23.40810547 11.91163086 23.40810547 12.65039062 24.20703125 C13.13056641 24.72910156 13.61074219 25.25117188 14.10546875 25.7890625 C14.75745239 26.49603271 14.75745239 26.49603271 15.42260742 27.21728516 C15.94314697 27.80558105 16.46368652 28.39387695 17 29 C17.84288071 29.86263458 18.68576141 30.72526917 19.55418396 31.61404419 C22.46994566 35.14308598 22.73422713 38.49534285 22.71044922 42.95800781 C22.72563599 43.73286026 22.74082275 44.50771271 22.75646973 45.30604553 C22.79869946 47.85551961 22.80376433 50.40332351 22.8046875 52.953125 C22.818228 54.73664015 22.83265658 56.52014876 22.84793091 58.3036499 C22.87332134 62.03935463 22.87863421 65.77447611 22.87158203 69.51025391 C22.86549425 74.27688747 22.92329529 79.04033603 22.99824333 83.80629349 C23.04655613 87.49039371 23.05328033 91.17373697 23.0485878 94.85811615 C23.05261782 96.61391178 23.07095724 98.36973946 23.10439682 100.12522125 C23.36745212 115.5136683 23.36745212 115.5136683 17.66503906 121.92041016 C16.14232181 123.31634203 14.58892922 124.67992517 13 126 C11.7566208 127.24108209 10.52243229 128.49156836 9.3046875 129.7578125 C8.16342992 130.88221299 7.02021362 132.00462903 5.875 133.125 C1.54042373 137.40857444 -2.65917557 141.72608919 -6.6015625 146.37890625 C-8.61638374 148.71452305 -10.78641059 150.85348906 -13 153 C-1.64200229 159.00874718 10.19926338 163.93968413 22 169 C22 173.62 22 178.24 22 183 C15.61403406 183.27323114 9.23150999 183.47210484 2.84106445 183.60424805 C0.67086496 183.6593555 -1.49892997 183.73426998 -3.66772461 183.82983398 C-21.68026131 184.60327701 -21.68026131 184.60327701 -27.24804688 180.75512695 C-29.52217178 177.95115786 -31.25550576 175.15401345 -33 172 C-34.70383468 169.92278175 -34.70383468 169.92278175 -36.4765625 168.14453125 C-36.99831055 167.58926758 -37.52005859 167.03400391 -38.05761719 166.46191406 C-38.57485352 165.91760742 -39.09208984 165.37330078 -39.625 164.8125 C-40.74823485 163.61667294 -41.87063877 162.42006483 -42.9921875 161.22265625 C-43.51522461 160.66465332 -44.03826172 160.10665039 -44.57714844 159.53173828 C-46.88901432 157.04295198 -49.11567589 154.48431609 -51.3359375 151.9140625 C-54.83292933 147.891701 -58.42859365 143.95620434 -62 140 C-63.50028679 138.33359149 -65.00028872 136.66692647 -66.5 135 C-68.7275 132.525 -68.7275 132.525 -71 130 C-73.97 126.7 -76.94 123.4 -80 120 C-80.33 140.79 -80.66 161.58 -81 183 C-100.14 183 -119.28 183 -139 183 C-139 127.56 -139 72.12 -139 15 C-123.82 15 -108.64 15 -93 15 C-87.23271289 21.34401582 -81.76018301 27.4864868 -76.4140625 34.1171875 C-73.22224259 37.92877827 -69.83737099 41.53843181 -66.43969727 45.16577148 C-63.34249154 48.49119755 -60.40392933 51.88701675 -57.5625 55.4375 C-53.42264005 60.60282984 -48.97577014 65.42596135 -44.42797852 70.23022461 C-43.89744873 70.79233643 -43.36691895 71.35444824 -42.8203125 71.93359375 C-42.34867676 72.42915771 -41.87704102 72.92472168 -41.39111328 73.43530273 C-39.8211472 75.20117016 -38.41771269 77.10971642 -37 79 C-36.67 57.88 -36.34 36.76 -36 15 C-20.49 14.67 -4.98 14.34 11 14 C5.555 8.06 5.555 8.06 0 2 C0 1.34 0 0.68 0 0 Z " fill="#FEE41E" transform="translate(381,211)"/>
<path d="M0 0 C7.92 0 15.84 0 24 0 C28.91746265 10.37991797 33.53646515 20.83003862 37.9375 31.4375 C38.53161174 32.86275084 39.12601173 34.28788155 39.72070312 35.71289062 C41.15043906 39.14055794 42.57634423 42.5698021 44 46 C44.098004 45.45320587 44.196008 44.90641174 44.29698181 44.3430481 C45.31529586 38.66503953 46.33790364 32.98781639 47.36303711 27.31103516 C47.74533075 25.19079206 48.12651971 23.07034948 48.5065918 20.94970703 C49.05228774 17.906047 49.60191946 14.86312052 50.15234375 11.8203125 C50.40708717 10.39212692 50.40708717 10.39212692 50.66697693 8.93508911 C50.82706741 8.05432709 50.9871579 7.17356506 51.15209961 6.26611328 C51.29199814 5.48889923 51.43189667 4.71168518 51.57603455 3.91091919 C52 2 52 2 53 0 C59.93 0 66.86 0 74 0 C73.36777094 5.69006151 72.69219911 11.16968113 71.70898438 16.78295898 C71.58364822 17.50282486 71.45831207 18.22269073 71.32917786 18.96437073 C70.92018958 21.30878209 70.50714281 23.65245536 70.09375 25.99609375 C69.80595678 27.63751049 69.51832101 29.27895485 69.23083496 30.92042542 C68.63083689 34.34237916 68.02878895 37.76396421 67.42529297 41.18530273 C66.65116455 45.57509875 65.88246099 49.96582491 65.11528778 54.35684109 C64.52389522 57.73803547 63.92954812 61.1187053 63.33430481 64.49922371 C63.04948234 66.11902394 62.76561421 67.73899228 62.48271179 69.35912895 C62.08850343 71.61423213 61.69030057 73.86859368 61.29101562 76.12280273 C61.06530884 77.40581772 60.83960205 78.6888327 60.60705566 80.01072693 C60 83 60 83 59 85 C51.74 85 44.48 85 37 85 C29.70368491 68.77773599 22.60111825 52.52054057 16 36 C13.20614272 49.63298876 10.51427108 63.26676864 8.25683594 77.00024414 C8.10504883 77.90766357 7.95326172 78.81508301 7.796875 79.75 C7.66635742 80.54921875 7.53583984 81.3484375 7.40136719 82.171875 C7 84 7 84 6 85 C4.43827255 85.08685603 2.87270656 85.10702219 1.30859375 85.09765625 C0.36435547 85.09443359 -0.57988281 85.09121094 -1.55273438 85.08789062 C-2.54595703 85.07951172 -3.53917969 85.07113281 -4.5625 85.0625 C-5.55958984 85.05798828 -6.55667969 85.05347656 -7.58398438 85.04882812 C-10.05604849 85.03700007 -12.52799518 85.02051849 -15 85 C-11.6967251 64.809303 -8.26703859 44.64365005 -4.6875 24.5 C-4.51105957 23.50457184 -4.33461914 22.50914368 -4.15283203 21.48355103 C-3.64921212 18.64496874 -3.14342551 15.80678272 -2.63671875 12.96875 C-2.48591354 12.11923264 -2.33510834 11.26971527 -2.17973328 10.39445496 C-2.03880753 9.60879654 -1.89788177 8.82313812 -1.75268555 8.01367188 C-1.63088425 7.33171753 -1.50908295 6.64976318 -1.3835907 5.94714355 C-0.99018981 3.95020252 -0.49363822 1.97455287 0 0 Z " fill="#FEE41E" transform="translate(321,458)"/>
<path d="M0 0 C6.96195809 7.20598548 8 12.88308666 8 23 C0.74 23 -6.52 23 -14 23 C-14.99 20.03 -15.98 17.06 -17 14 C-20.54850142 11.12740361 -23.27581618 10.80936734 -27.6875 11.125 C-30.33362618 11.42663096 -31.65541611 11.72402454 -33.74609375 13.3984375 C-35.20944524 14.99649217 -35.20944524 14.99649217 -35.375 17.5 C-34.9209163 20.52722468 -34.35588201 21.11200211 -32 23 C-29.45911036 24.02733273 -29.45911036 24.02733273 -26.5546875 24.796875 C-25.47703125 25.1165625 -24.399375 25.43625 -23.2890625 25.765625 C-21.0388039 26.41444098 -18.78622322 27.05526452 -16.53125 27.6875 C-8.1488415 30.19624934 -1.18126875 33.52634082 4 40.8125 C6.83212799 49.83990797 6.26316539 57.13838546 2.3125 65.625 C-2.25296507 72.9665354 -8.91305169 76.4925209 -17 79 C-28.4058151 81.44410324 -41.76370546 80.83118999 -51.86328125 74.59375 C-59.19436791 69.1255903 -62.75335098 63.64804063 -64.625 54.69921875 C-65 52 -65 52 -65 48 C-57.74 48 -50.48 48 -43 48 C-41.68 50.97 -40.36 53.94 -39 57 C-35.36401117 60.14463899 -31.74952625 60.75433485 -27 61 C-21.97807494 59.98144646 -21.97807494 59.98144646 -18 57 C-17.49985047 54.54258463 -17.49985047 54.54258463 -18 52 C-20.86753266 49.37533785 -23.71043369 48.26011415 -27.39453125 47.1328125 C-28.43287109 46.80410156 -29.47121094 46.47539062 -30.54101562 46.13671875 C-32.70910761 45.46622822 -34.8783712 44.79951368 -37.04882812 44.13671875 C-45.89293352 41.32541994 -52.24621569 38.41054147 -57 30 C-59.16880227 23.49359318 -59.35008175 13.86560109 -56.5 7.5 C-51.08021294 -1.21714003 -42.71436108 -5.28569504 -33.0625 -7.75 C-20.56231826 -8.770423 -10.21040674 -7.87016071 0 0 Z " fill="#FEE41E" transform="translate(725,465)"/>
<path d="M0 0 C6.96195809 7.20598548 8 12.88308666 8 23 C0.74 23 -6.52 23 -14 23 C-14.99 20.03 -15.98 17.06 -17 14 C-20.54850142 11.12740361 -23.27581618 10.80936734 -27.6875 11.125 C-30.33362618 11.42663096 -31.65541611 11.72402454 -33.74609375 13.3984375 C-35.20944524 14.99649217 -35.20944524 14.99649217 -35.375 17.5 C-34.9209163 20.52722468 -34.35588201 21.11200211 -32 23 C-29.45911036 24.02733273 -29.45911036 24.02733273 -26.5546875 24.796875 C-25.47703125 25.1165625 -24.399375 25.43625 -23.2890625 25.765625 C-21.0388039 26.41444098 -18.78622322 27.05526452 -16.53125 27.6875 C-8.1488415 30.19624934 -1.18126875 33.52634082 4 40.8125 C6.83212799 49.83990797 6.26316539 57.13838546 2.3125 65.625 C-2.25296507 72.9665354 -8.91305169 76.4925209 -17 79 C-28.4058151 81.44410324 -41.76370546 80.83118999 -51.86328125 74.59375 C-59.19436791 69.1255903 -62.75335098 63.64804063 -64.625 54.69921875 C-65 52 -65 52 -65 48 C-57.74 48 -50.48 48 -43 48 C-41.68 50.97 -40.36 53.94 -39 57 C-35.36401117 60.14463899 -31.74952625 60.75433485 -27 61 C-21.97807494 59.98144646 -21.97807494 59.98144646 -18 57 C-17.49985047 54.54258463 -17.49985047 54.54258463 -18 52 C-20.86753266 49.37533785 -23.71043369 48.26011415 -27.39453125 47.1328125 C-28.43287109 46.80410156 -29.47121094 46.47539062 -30.54101562 46.13671875 C-32.70910761 45.46622822 -34.8783712 44.79951368 -37.04882812 44.13671875 C-45.89293352 41.32541994 -52.24621569 38.41054147 -57 30 C-59.16880227 23.49359318 -59.35008175 13.86560109 -56.5 7.5 C-51.08021294 -1.21714003 -42.71436108 -5.28569504 -33.0625 -7.75 C-20.56231826 -8.770423 -10.21040674 -7.87016071 0 0 Z " fill="#FEE41E" transform="translate(224,465)"/>
<path d="M0 0 C6.96195809 7.20598548 8 12.88308666 8 23 C0.74 23 -6.52 23 -14 23 C-14.99 20.03 -15.98 17.06 -17 14 C-20.54850142 11.12740361 -23.27581618 10.80936734 -27.6875 11.125 C-30.33362618 11.42663096 -31.65541611 11.72402454 -33.74609375 13.3984375 C-35.20944524 14.99649217 -35.20944524 14.99649217 -35.375 17.5 C-34.9209163 20.52722468 -34.35588201 21.11200211 -32 23 C-29.45911036 24.02733273 -29.45911036 24.02733273 -26.5546875 24.796875 C-25.47703125 25.1165625 -24.399375 25.43625 -23.2890625 25.765625 C-21.0388039 26.41444098 -18.78622322 27.05526452 -16.53125 27.6875 C-8.1488415 30.19624934 -1.18126875 33.52634082 4 40.8125 C6.83212799 49.83990797 6.26316539 57.13838546 2.3125 65.625 C-2.25296507 72.9665354 -8.91305169 76.4925209 -17 79 C-28.4058151 81.44410324 -41.76370546 80.83118999 -51.86328125 74.59375 C-59.19436791 69.1255903 -62.75335098 63.64804063 -64.625 54.69921875 C-65 52 -65 52 -65 48 C-57.74 48 -50.48 48 -43 48 C-41.68 50.97 -40.36 53.94 -39 57 C-35.36401117 60.14463899 -31.74952625 60.75433485 -27 61 C-21.97807494 59.98144646 -21.97807494 59.98144646 -18 57 C-17.49985047 54.54258463 -17.49985047 54.54258463 -18 52 C-20.86753266 49.37533785 -23.71043369 48.26011415 -27.39453125 47.1328125 C-28.43287109 46.80410156 -29.47121094 46.47539062 -30.54101562 46.13671875 C-32.70910761 45.46622822 -34.8783712 44.79951368 -37.04882812 44.13671875 C-45.89293352 41.32541994 -52.24621569 38.41054147 -57 30 C-59.16880227 23.49359318 -59.35008175 13.86560109 -56.5 7.5 C-51.08021294 -1.21714003 -42.71436108 -5.28569504 -33.0625 -7.75 C-20.56231826 -8.770423 -10.21040674 -7.87016071 0 0 Z " fill="#FEE41E" transform="translate(149,465)"/>
<path d="M0 0 C1.00023193 0.00523682 2.00046387 0.01047363 3.03100586 0.01586914 C4.1105957 0.0190918 5.19018555 0.02231445 6.30249023 0.02563477 C8.00695312 0.03820312 8.00695312 0.03820312 9.74584961 0.05102539 C11.45611328 0.05779297 11.45611328 0.05779297 13.20092773 0.06469727 C16.02845312 0.07652792 18.85587601 0.09301129 21.68334961 0.11352539 C23.13256891 4.93204973 24.23010512 9.67356484 25.10375977 14.63769531 C25.23084824 15.35405655 25.35793671 16.07041779 25.48887634 16.80848694 C25.90377455 19.1530175 26.31327261 21.49845235 26.72241211 23.84399414 C27.01078901 25.48354534 27.29939742 27.12305583 27.58822632 28.76252747 C28.19070293 32.18729608 28.7905242 35.61251608 29.38842773 39.03808594 C30.15469115 43.42709349 30.92737431 47.81494188 31.70200539 52.20247936 C32.2981427 55.58291877 32.89100317 58.96392644 33.48286057 62.34511757 C33.76655195 63.96360846 34.05123577 65.58192571 34.33693314 67.20006371 C34.73517988 69.45865742 35.12903548 71.71797406 35.52172852 73.97753906 C35.74663971 75.26214523 35.9715509 76.5467514 36.20327759 77.87028503 C36.68334961 81.11352539 36.68334961 81.11352539 36.68334961 85.11352539 C29.09334961 85.11352539 21.50334961 85.11352539 13.68334961 85.11352539 C13.02334961 80.49352539 12.36334961 75.87352539 11.68334961 71.11352539 C-2.17665039 70.61852539 -2.17665039 70.61852539 -16.31665039 70.11352539 C-16.97665039 72.09352539 -17.63665039 74.07352539 -18.31665039 76.11352539 C-19.96665039 79.08352539 -21.61665039 82.05352539 -23.31665039 85.11352539 C-31.23665039 85.11352539 -39.15665039 85.11352539 -47.31665039 85.11352539 C-45.84960982 80.71240368 -44.49688625 77.31214478 -42.33227539 73.31665039 C-41.73398926 72.20644531 -41.13570313 71.09624023 -40.51928711 69.95239258 C-39.86848636 68.756061 -39.21760536 67.55977307 -38.56665039 66.36352539 C-37.89057652 65.11279488 -37.21496534 63.86181415 -36.53979492 62.6105957 C-35.14974554 60.03606502 -33.75717976 57.46292076 -32.36254883 54.89086914 C-29.86903319 50.29043398 -27.39278149 45.68075844 -24.91601562 41.07128906 C-22.63474131 36.827531 -20.34782322 32.58682923 -18.06030273 28.34643555 C-16.85943766 26.11990863 -15.65928379 23.89299803 -14.4597168 21.66577148 C-12.64299603 18.29321428 -10.82388747 14.92195583 -9.00415039 11.55102539 C-8.44646973 10.51494141 -7.88878906 9.47885742 -7.31420898 8.41137695 C-6.80325684 7.46617187 -6.29230469 6.5209668 -5.76586914 5.54711914 C-5.3155835 4.71237061 -4.86529785 3.87762207 -4.40136719 3.01757812 C-2.75932001 0.13521802 -2.75932001 0.13521802 0 0 Z M4.68334961 28.11352539 C2.8435574 31.73528269 1.01262095 35.36144437 -0.81665039 38.98852539 C-1.34129883 40.02106445 -1.86594727 41.05360352 -2.40649414 42.11743164 C-2.9027832 43.10356445 -3.39907227 44.08969727 -3.91040039 45.10571289 C-4.37124023 46.01691895 -4.83208008 46.928125 -5.30688477 47.86694336 C-6.45330397 50.00704664 -6.45330397 50.00704664 -6.31665039 52.11352539 C-1.03665039 52.11352539 4.24334961 52.11352539 9.68334961 52.11352539 C9.2360357 48.29942877 8.77608543 44.48762259 8.30834961 40.67602539 C8.18202148 39.58741211 8.05569336 38.49879883 7.92553711 37.37719727 C7.79663086 36.34272461 7.66772461 35.30825195 7.53491211 34.24243164 C7.41970215 33.28409424 7.30449219 32.32575684 7.18579102 31.33837891 C7.01998535 30.60417725 6.85417969 29.86997559 6.68334961 29.11352539 C6.02334961 28.78352539 5.36334961 28.45352539 4.68334961 28.11352539 Z " fill="#FEE41E" transform="translate(548.316650390625,457.886474609375)"/>
<path d="M0 0 C19.14 0 38.28 0 58 0 C56 16 56 16 55 20 C43.12 20 31.24 20 19 20 C18.67 23.3 18.34 26.6 18 30 C17.67 30.66 17.34 31.32 17 32 C27.56 32 38.12 32 49 32 C48 42 48 42 46 51 C30.16 51.495 30.16 51.495 14 52 C13.01 56.62 12.02 61.24 11 66 C22.88 66 34.76 66 47 66 C46 76 46 76 44 85 C24.53 85 5.06 85 -15 85 C-11.6767563 64.81129454 -8.26721459 44.64464047 -4.6875 24.5 C-4.51105957 23.50457184 -4.33461914 22.50914368 -4.15283203 21.48355103 C-3.64921212 18.64496874 -3.14342551 15.80678272 -2.63671875 12.96875 C-2.48591354 12.11923264 -2.33510834 11.26971527 -2.17973328 10.39445496 C-2.03880753 9.60879654 -1.89788177 8.82313812 -1.75268555 8.01367188 C-1.63088425 7.33171753 -1.50908295 6.64976318 -1.3835907 5.94714355 C-0.99018981 3.95020252 -0.49363822 1.97455287 0 0 Z " fill="#FEE41E" transform="translate(251,458)"/>
<path d="M0 0 C19.14 0 38.28 0 58 0 C56 16 56 16 55 20 C43.12 20 31.24 20 19 20 C18.67 23.3 18.34 26.6 18 30 C17.67 30.66 17.34 31.32 17 32 C27.56 32 38.12 32 49 32 C48 42 48 42 46 51 C30.16 51.495 30.16 51.495 14 52 C13.01 56.62 12.02 61.24 11 66 C22.88 66 34.76 66 47 66 C46 76 46 76 44 85 C24.53 85 5.06 85 -15 85 C-11.6767563 64.81129454 -8.26721459 44.64464047 -4.6875 24.5 C-4.51105957 23.50457184 -4.33461914 22.50914368 -4.15283203 21.48355103 C-3.64921212 18.64496874 -3.14342551 15.80678272 -2.63671875 12.96875 C-2.48591354 12.11923264 -2.33510834 11.26971527 -2.17973328 10.39445496 C-2.03880753 9.60879654 -1.89788177 8.82313812 -1.75268555 8.01367188 C-1.63088425 7.33171753 -1.50908295 6.64976318 -1.3835907 5.94714355 C-0.99018981 3.95020252 -0.49363822 1.97455287 0 0 Z " fill="#FEE41E" transform="translate(29,458)"/>
<path d="M0 0 C24.09 0 48.18 0 73 0 C72.01 6.93 71.02 13.86 70 21 C61.42 21 52.84 21 44 21 C43.67 24.96 43.34 28.92 43 33 C42.72808639 35.01455062 42.42944133 37.02618909 42.07617188 39.02807617 C41.89928833 40.04500046 41.72240479 41.06192474 41.54016113 42.10966492 C41.35159546 43.16015518 41.16302979 44.21064545 40.96875 45.29296875 C40.67478333 46.96193962 40.67478333 46.96193962 40.37487793 48.66462708 C39.96396237 50.99017968 39.55040116 53.31526627 39.13427734 55.63989258 C38.49507062 59.21507075 37.86611575 62.79194972 37.23828125 66.36914062 C36.83653828 68.63552324 36.4342159 70.90180325 36.03125 73.16796875 C35.84268433 74.24072556 35.65411865 75.31348236 35.45983887 76.41874695 C35.28295532 77.40099747 35.10607178 78.38324799 34.92382812 79.39526367 C34.76918091 80.26285812 34.61453369 81.13045258 34.4552002 82.02433777 C34 84 34 84 33 85 C31.36527118 85.08700342 29.72685945 85.10701063 28.08984375 85.09765625 C27.10048828 85.09443359 26.11113281 85.09121094 25.09179688 85.08789062 C24.05087891 85.07951172 23.00996094 85.07113281 21.9375 85.0625 C20.89271484 85.05798828 19.84792969 85.05347656 18.77148438 85.04882812 C16.18093064 85.03699911 13.59050254 85.01967834 11 85 C11.58185637 77.18573401 12.64988038 69.55021606 14.03125 61.83984375 C14.22722778 60.72815323 14.42320557 59.61646271 14.62512207 58.47108459 C15.03645836 56.14382648 15.45001947 53.81696057 15.86572266 51.49047852 C16.50362435 47.91719776 17.13316403 44.34251364 17.76171875 40.76757812 C18.16357206 38.49991303 18.56589864 36.23233175 18.96875 33.96484375 C19.15731567 32.89411118 19.34588135 31.8233786 19.54016113 30.72019958 C19.71704468 29.73479691 19.89392822 28.74939423 20.07617188 27.73413086 C20.23081909 26.86574081 20.38546631 25.99735077 20.5447998 25.10264587 C21 23 21 23 22 21 C13.75 21 5.5 21 -3 21 C-2.01 14.07 -1.02 7.14 0 0 Z " fill="#FEE41E" transform="translate(404,458)"/>
<path d="M0 0 C7.59 0 15.18 0 23 0 C21.47082033 8.91795932 19.93429578 17.83462612 18.38977051 26.74993896 C18.12586798 28.2733913 17.86211924 29.79687029 17.59851074 31.32037354 C16.78583962 36.01590119 15.96951697 40.71077065 15.14849854 45.40484619 C14.88286647 46.92642278 14.61833968 48.44819274 14.35491943 49.97015381 C13.98438539 52.10954191 13.60987697 54.24819783 13.234375 56.38671875 C12.91291504 58.23076294 12.91291504 58.23076294 12.58496094 60.11206055 C12 63 12 63 11 65 C22.22 65 33.44 65 45 65 C44 76 44 76 42 85 C23.19 85 4.38 85 -15 85 C-11.6767563 64.81129454 -8.26721459 44.64464047 -4.6875 24.5 C-4.51105957 23.50457184 -4.33461914 22.50914368 -4.15283203 21.48355103 C-3.64921212 18.64496874 -3.14342551 15.80678272 -2.63671875 12.96875 C-2.48591354 12.11923264 -2.33510834 11.26971527 -2.17973328 10.39445496 C-2.03880753 9.60879654 -1.89788177 8.82313812 -1.75268555 8.01367188 C-1.63088425 7.33171753 -1.50908295 6.64976318 -1.3835907 5.94714355 C-0.99018981 3.95020252 -0.49363822 1.97455287 0 0 Z " fill="#FEE41E" transform="translate(608,458)"/>
<path d="M0 0 C7.59 0 15.18 0 23 0 C19.89242821 19.06706109 16.60308817 38.09971343 13.25 57.125 C13.04786896 58.27457184 12.84573792 59.42414368 12.63748169 60.60855103 C12.05685138 63.90859953 11.47412055 67.20826954 10.890625 70.5078125 C10.71476364 71.50766678 10.53890228 72.50752106 10.35771179 73.53767395 C10.19358292 74.46255112 10.02945404 75.38742828 9.86035156 76.34033203 C9.71776917 77.14697296 9.57518677 77.95361389 9.42828369 78.78469849 C9.02478125 80.87181876 8.51557422 82.93770311 8 85 C0.41 85 -7.18 85 -15 85 C-11.69141155 64.81009094 -8.2670601 44.64377108 -4.6875 24.5 C-4.51105957 23.50457184 -4.33461914 22.50914368 -4.15283203 21.48355103 C-3.64921212 18.64496874 -3.14342551 15.80678272 -2.63671875 12.96875 C-2.48591354 12.11923264 -2.33510834 11.26971527 -2.17973328 10.39445496 C-2.03880753 9.60879654 -1.89788177 8.82313812 -1.75268555 8.01367188 C-1.63088425 7.33171753 -1.50908295 6.64976318 -1.3835907 5.94714355 C-0.99018981 3.95020252 -0.49363822 1.97455287 0 0 Z " fill="#FEE41E" transform="translate(485,458)"/>
</svg>
