<svg xmlns="http://www.w3.org/2000/svg" viewBox="0 0 347.65 133.63"><defs><style>.cls-1{fill:#ed1c24;}.cls-2{fill:#00aeef;}.cls-3{fill:#d2de2b;}.cls-4{fill:#80c342;}</style></defs><g id="Logo"><path class="cls-1" d="M33.49,77.35c0-24.11,20.14-45,47.54-45,14.84,0,25.75,7,31.1,17.35-4.46-13.47-16.94-23.23-34.84-23.23-28.87,0-50.08,22-50.08,47.4,0,15.66,8.32,27.88,23.54,32.12-11.2-5.12-17.26-15.63-17.26-28.64"/><path class="cls-2" d="M231.15,70.66c-3.77,0-6.29,1.69-7.58,4V58l-5,.64V96.46h5V78.26a6.72,6.72,0,0,1,6-3.38c3.77,0,5.7,1.89,5.7,6.8V96.46h5V81.68c0-6.94-2.77-11-9.13-11m56.2,0c-7.24,0-12,4.62-12,13,0,8.88,5.06,13.15,11.86,13.15,5.31,0,8.28-2.28,9.28-4.27l-.6-3.76a9.28,9.28,0,0,1-7.84,3.67c-4.66,0-7.44-2.78-7.44-8.94s2.58-8.78,6.75-8.78c3.57,0,5.11,1.59,5.11,5.06a11.7,11.7,0,0,1-.25,2.09l4.37-.4a10.61,10.61,0,0,0,.49-3.18c0-5-3.77-7.69-9.77-7.69m33.09,9.09c0-5.21-3.58-9.09-10.37-9.09-7.69,0-12,5.71-12,13.2,0,8.34,4.67,13,12.26,13,5.35,0,8.48-2.43,9.47-4.41l-.59-3.62c-1.59,2.18-4.37,3.71-8.19,3.71-4.46,0-7.59-2.38-7.69-8.18h16.47a17.58,17.58,0,0,0,.6-4.61m-5.06,1.53H303.57c.65-4.21,2.88-6.54,6.45-6.54,4.22,0,5.36,2.62,5.36,5.65ZM207.09,70.66c-7.24,0-12,4.62-12,13,0,8.88,5.06,13.15,11.86,13.15,5.3,0,8.28-2.28,9.27-4.27l-.59-3.76a9.28,9.28,0,0,1-7.84,3.67c-4.66,0-7.44-2.78-7.44-8.94s2.58-8.78,6.75-8.78c3.56,0,5.1,1.59,5.1,5.06a12,12,0,0,1-.24,2.09l4.36-.4a10.3,10.3,0,0,0,.5-3.18c0-5-3.77-7.69-9.78-7.69m61.52,25.8h5V70.66l-5,.65ZM254.43,70.62c-7.25,0-12.41,4.71-12.41,13.14s5.07,13.15,12.41,13.15,12.35-4.76,12.35-13.15-5.16-13.14-12.35-13.14m0,21.92c-4.47,0-7.15-2.92-7.15-8.78s2.68-8.83,7.15-8.83,7.14,3,7.14,8.83-2.78,8.78-7.14,8.78M110.37,70a7.22,7.22,0,0,0-5.54,2.3V69.88l-8.72.84v26h8.72v-17c.37-1.22,1.4-3.16,3.11-3.16.92,0,1.52.13,1.52,2a13.5,13.5,0,0,1-.27,2.27l-.32,1.1L116.2,81l.18-.41A10.86,10.86,0,0,0,117,77c0-4.55-2.37-7.06-6.67-7.06m-22.78-.88c0-4.22,1-5.09,2.57-5.09,1,0,1.77.19,1.91,2.61a7.84,7.84,0,0,1,0,1.08l0,1.18,7.11-.62.13-.52a9.17,9.17,0,0,0,.35-2.64c-.18-3.43-2-7.53-9.54-7.53-7.18,0-11.14,4.28-11.14,12v1.17h-3.2l-1.15,6.84h4.35v19.1h8.67V77.59h6.75V70.75H87.59Zm95.85.88a9.53,9.53,0,0,0-6.68,2.32V57.48l-8.72.84V96.69h8.72V79.25a5.13,5.13,0,0,1,4.15-2.11c2.34,0,3.9.85,3.9,5V96.69h8.72v-15C193.53,74,190,70,183.44,70M158.55,80.6,156.29,80c-2.55-.65-3.39-1-3.39-1.79,0-.47,0-1.47,3.15-1.47a14.43,14.43,0,0,1,7.27,2.12l1,.79,1.13-6.29L165.2,73c-1.13-1.23-4.57-3.07-9.39-3.07-6.84,0-11.43,3.47-11.43,8.65,0,3.94,2.64,6.61,7.85,7.93l2.4.65c2.53.62,3.19,1,3.19,1.74,0,.94-1.26,1.42-3.75,1.42a16.49,16.49,0,0,1-8.36-2.26l-1-.68-.86,6.64.31.26c1.83,1.61,6.22,2.77,10.43,2.77,7.38,0,12-3.25,12-8.5s-4.28-7-8-8M131.23,70c-8.43,0-13.66,5.18-13.66,13.51,0,8.65,5.16,13.61,14.15,13.61,6.11,0,9.46-2.75,10.47-4.37l.17-.27-1.07-4.66-.93.63a10.71,10.71,0,0,1-6,1.67A12.73,12.73,0,0,1,133,90c-3.43-.36-5.71-1.31-6.26-4.73h15.41l.15-.57a3,3,0,0,1,.09-.35A16.21,16.21,0,0,0,143,79.9c0-6.13-4.51-9.94-11.77-9.94M127,80.18c.61-2.32,2-3.49,4.08-3.49s3.33,1.14,3.35,3.49Z"/><path class="cls-2" d="M271.2,66.2c1.66,0,2.83-1.08,2.83-3.08a2.84,2.84,0,1,0-5.67,0,2.75,2.75,0,0,0,2.84,3.08"/><path class="cls-3" d="M79.23,103c-15.82,0-24.67-9.69-24.67-23A32.1,32.1,0,0,1,71.19,52.05C53.94,54.23,41.72,68.2,41.72,84.12c0,13.36,8.86,23,24.68,23a37.26,37.26,0,0,0,18.07-4.55,39.08,39.08,0,0,1-5.24.35"/><path class="cls-4" d="M39.11,83.86c0-20.33,17-37.94,40.09-37.94,9,0,16.36,3.11,21.42,8.12-4.22-8.85-13.31-15-25.82-15-22.4,0-38.86,17.08-38.86,36.79a27.19,27.19,0,0,0,3.81,14.44,31.87,31.87,0,0,1-.64-6.43"/></g></svg>