<?xml version="1.0" standalone="no"?>
<!DOCTYPE svg PUBLIC "-//W3C//DTD SVG 20010904//EN"
 "http://www.w3.org/TR/2001/REC-SVG-20010904/DTD/svg10.dtd">
<svg version="1.0" xmlns="http://www.w3.org/2000/svg"
 width="1200.000000pt" height="628.000000pt" viewBox="0 0 1200.000000 628.000000"
 preserveAspectRatio="xMidYMid meet">

<g transform="translate(0.000000,628.000000) scale(0.100000,-0.100000)"
fill="#000000" stroke="none">
<path d="M5955 5634 c-22 -2 -85 -9 -140 -15 -408 -43 -857 -222 -1197 -478
-533 -401 -886 -990 -982 -1640 -8 -57 -17 -105 -18 -107 -2 -1 -48 -11 -103
-22 l-100 -19 2 -46 c2 -26 0 -47 -4 -47 -26 0 -75 51 -94 97 -12 29 -36 66
-54 82 -29 25 -129 71 -154 71 -8 0 -101 -95 -101 -103 0 -21 -24 -123 -30
-127 -4 -3 -22 -30 -40 -60 l-32 -55 12 -70 c12 -68 55 -288 65 -332 3 -12 27
-39 54 -60 l49 -40 74 13 c40 7 88 13 106 14 17 0 32 4 32 9 0 5 9 11 19 14
16 4 20 -2 24 -32 3 -20 8 -48 12 -62 6 -22 2 -28 -23 -38 -39 -16 -77 -57
-95 -101 -13 -31 -13 -47 4 -140 25 -138 23 -133 78 -179 45 -38 49 -39 89
-30 23 5 75 13 115 18 39 5 90 14 112 20 22 6 65 11 97 11 l56 0 66 -133 c87
-178 153 -285 262 -430 568 -756 1498 -1121 2439 -957 300 52 656 194 915 364
676 444 1090 1168 1136 1986 4 73 12 128 18 132 6 4 39 8 73 8 35 0 63 5 65
11 2 6 48 17 103 26 169 25 185 32 220 94 l31 54 -18 90 c-9 50 -17 104 -17
122 -1 25 -11 40 -54 77 -48 41 -56 44 -94 39 l-41 -5 -21 57 c-12 32 -20 64
-17 70 2 7 37 28 78 48 63 30 79 43 117 98 l44 63 -16 100 c-15 96 -18 101
-54 132 -21 18 -60 45 -86 59 -55 31 -47 31 -342 -11 -93 -13 -173 -24 -177
-24 -5 0 -17 -9 -29 -21 -11 -11 -22 -19 -23 -17 -2 1 -26 48 -55 102 -239
453 -635 835 -1096 1061 -254 125 -481 196 -745 235 -128 18 -429 33 -515 24z
m468 -212 c48 -13 56 -20 37 -35 -9 -7 -21 -23 -27 -37 -12 -25 -12 -25 -7 5
l6 30 -21 -25 c-32 -39 -26 -65 13 -50 18 6 22 4 22 -11 0 -10 -3 -19 -7 -19
-4 0 -10 -12 -14 -27 -4 -16 -9 -23 -12 -17 -3 9 -10 9 -28 0 -32 -14 -32 -30
0 -24 22 5 25 3 19 -16 -4 -11 -7 -22 -8 -23 -1 -1 -37 2 -81 6 -44 5 -142 8
-217 7 -107 -1 -139 2 -143 12 -9 23 -6 29 15 35 14 4 20 13 20 34 l-1 28 -24
-27 c-13 -16 -31 -28 -39 -28 -8 0 -18 -4 -21 -10 -3 -5 -1 -10 4 -10 6 0 11
-9 11 -19 0 -16 -9 -21 -47 -26 -124 -16 -315 -59 -416 -94 -174 -60 -208 -74
-267 -107 -30 -17 -80 -44 -110 -60 -30 -16 -60 -35 -68 -42 -7 -6 -23 -17
-35 -24 -12 -6 -47 -30 -77 -52 -256 -190 -457 -417 -600 -681 -24 -44 -49
-83 -54 -87 -6 -4 -8 -8 -4 -8 4 0 -6 -28 -22 -62 -46 -103 -108 -297 -132
-419 -21 -99 -47 -178 -48 -142 0 6 5 15 10 18 14 9 12 42 -2 48 -10 4 -9 8 2
16 13 9 13 11 -2 11 -11 0 -18 8 -18 19 0 29 -40 38 -60 15 -8 -11 -22 -24
-31 -31 -13 -10 -14 -7 -11 21 2 21 -2 37 -13 46 -26 21 -51 0 -47 -39 2 -17
-1 -31 -8 -31 -6 0 -16 -11 -22 -25 -6 -14 -15 -25 -19 -25 -4 0 2 18 14 40
18 32 19 42 9 49 -16 10 -11 43 29 191 35 132 56 192 71 201 6 4 12 18 14 31
1 12 3 26 3 31 1 4 13 13 29 19 l27 11 -25 7 c-18 5 -21 9 -10 13 8 4 24 5 35
4 28 -3 33 33 6 40 -12 3 -21 6 -21 7 0 18 55 108 71 116 14 8 19 18 16 32 -7
24 68 150 119 203 19 19 34 40 34 46 0 5 8 21 17 35 15 24 18 25 29 9 7 -10
23 -18 36 -19 25 -2 61 22 52 35 -8 13 -42 11 -47 -3 -3 -7 -6 -3 -6 10 -1 13
3 20 9 17 6 -3 18 7 28 24 10 18 28 33 45 37 15 3 27 12 27 20 0 9 -11 14 -27
14 -28 1 -28 1 -8 18 12 9 24 25 28 35 3 9 14 17 22 17 9 0 13 4 10 10 -3 6 1
7 9 4 11 -4 16 0 16 14 0 22 152 162 175 162 7 0 16 7 19 16 4 9 9 15 12 12 2
-3 0 -17 -6 -32 -8 -21 -7 -28 5 -32 32 -13 64 53 35 71 -5 3 -10 9 -10 13 0
11 167 122 184 122 7 0 16 6 19 14 7 18 234 133 354 180 167 65 398 123 583
145 93 12 521 6 573 -7z m103 -37 c1 -8 -2 -15 -6 -15 -5 0 -17 -3 -27 -6 -11
-3 -14 -2 -7 3 6 4 14 17 17 27 8 20 19 15 23 -9z m164 -15 c210 -52 560 -203
566 -243 4 -29 34 -46 73 -39 28 4 32 2 25 -9 -5 -8 -9 -16 -10 -19 0 -3 -4
-13 -8 -23 -5 -10 -3 -23 4 -32 9 -11 9 -15 1 -15 -8 0 -11 -15 -9 -42 2 -31
7 -42 17 -40 8 2 18 -3 23 -10 6 -11 10 -10 17 1 5 8 16 11 24 8 11 -4 14 -2
10 9 -4 12 1 14 23 12 23 -2 28 1 26 15 -3 20 27 24 46 5 9 -9 12 -9 12 1 0 8
11 3 26 -13 15 -14 31 -26 36 -26 5 0 2 -7 -7 -16 -9 -9 -15 -24 -13 -33 5
-23 39 -26 55 -5 12 17 22 10 124 -91 123 -123 138 -143 118 -157 -12 -8 -12
-10 -1 -15 10 -4 8 -9 -7 -20 -12 -8 -21 -18 -21 -24 0 -16 36 -10 54 10 17
19 18 19 42 -2 13 -11 24 -27 24 -34 0 -7 5 -13 11 -13 6 0 8 -7 5 -15 -3 -10
1 -18 12 -22 19 -7 32 -23 32 -40 0 -9 -7 -8 -26 2 -30 15 -60 4 -70 -28 -9
-29 4 -33 26 -9 24 26 30 27 30 7 0 -8 -7 -15 -15 -15 -14 0 -38 -66 -29 -82
10 -16 22 -8 29 20 7 25 8 25 15 7 5 -11 9 -14 9 -7 1 20 21 13 21 -8 0 -13
10 -22 33 -28 l32 -9 -29 -8 c-18 -5 -36 -4 -47 4 -24 15 -46 14 -53 -1 -4
-10 -8 -10 -11 -2 -3 7 -16 10 -28 8 -18 -4 -19 -3 -4 4 10 4 17 12 15 17 -4
13 -68 17 -68 4 0 -5 6 -9 13 -10 9 0 9 -2 0 -6 -7 -2 -23 6 -35 19 -13 14
-31 27 -40 31 -11 4 -15 12 -12 21 4 11 -2 19 -18 25 -14 5 -33 22 -43 37 -34
52 -208 225 -300 298 -142 113 -219 164 -350 232 -66 34 -79 45 -77 63 2 11
-2 21 -7 21 -6 0 -11 -4 -11 -9 0 -17 -133 19 -161 45 -10 9 -23 13 -28 9 -6
-3 -17 -3 -23 2 -7 4 -17 8 -23 9 -5 1 -65 16 -132 33 -67 17 -136 31 -154 31
-28 0 -30 2 -18 16 8 9 12 28 11 41 -3 22 -1 24 19 18 19 -6 21 -4 16 14 -5
20 -4 19 27 -4 34 -26 56 -32 56 -15 0 6 -7 10 -15 10 -8 0 -15 5 -15 10 0 6
5 10 10 10 6 0 10 6 10 13 0 18 34 57 49 57 6 0 11 5 11 10 0 6 -7 10 -16 10
-8 0 -12 5 -9 10 4 6 11 8 16 5 5 -4 9 1 9 10 0 11 6 15 18 11 9 -3 37 -10 62
-16z m-170 -40 c0 -5 -7 -7 -15 -4 -8 4 -15 8 -15 10 0 2 7 4 15 4 8 0 15 -4
15 -10z m-535 -210 c8 13 197 13 319 0 65 -7 92 -14 102 -27 11 -15 15 -16 23
-4 8 12 21 12 95 -3 47 -10 90 -24 96 -31 6 -7 19 -11 30 -8 21 5 206 -53 215
-68 4 -5 13 -9 21 -9 7 0 45 -14 83 -32 46 -21 67 -36 64 -45 -4 -9 0 -11 11
-7 31 12 213 -104 374 -239 87 -73 245 -239 250 -263 2 -8 -4 -14 -17 -14 -14
0 -21 -8 -23 -28 -3 -28 -6 -25 -79 57 -101 115 -251 246 -376 328 -57 37
-103 72 -103 79 0 16 -56 45 -74 38 -6 -2 -57 15 -112 39 -54 24 -122 52 -151
61 -28 9 -54 24 -57 33 -5 11 -14 14 -36 10 -22 -5 -32 -2 -39 11 -8 14 -13
15 -30 4 -18 -10 -21 -10 -21 5 -1 20 -23 53 -35 53 -4 0 -5 -14 -1 -30 3 -17
2 -29 -2 -26 -15 9 -137 27 -212 32 -119 7 -158 14 -164 30 -3 8 -10 12 -16 9
-6 -4 -8 -10 -6 -14 3 -4 -15 -8 -39 -10 -42 -2 -44 -1 -47 28 l-3 31 -36 -35
c-34 -31 -37 -33 -42 -15 -7 28 -35 25 -49 -5 -15 -32 -43 -34 -34 -2 4 12 8
31 9 42 2 20 37 35 37 16 0 -6 11 -11 25 -11 19 0 23 4 18 18 -6 14 -4 15 9 4
11 -9 18 -10 23 -2z m-132 -16 c9 -9 -4 -34 -18 -34 -21 0 -38 -27 -24 -36 11
-7 -51 -23 -141 -38 -16 -2 -34 -7 -39 -11 -6 -3 -11 1 -11 9 0 22 -17 20 -23
-3 -6 -24 -66 -39 -77 -20 -7 10 -12 10 -23 1 -8 -7 -25 -11 -38 -10 -17 2
-27 -4 -36 -24 -14 -28 -71 -54 -86 -39 -6 6 -1 14 12 21 12 6 20 18 19 26 -2
8 11 23 27 32 17 9 33 22 38 29 4 6 22 14 40 18 17 4 52 14 77 23 49 18 230
59 271 61 14 0 28 -2 32 -5z m154 -60 c-3 -3 -12 -4 -19 -1 -8 3 -5 6 6 6 11
1 17 -2 13 -5z m1403 2 c0 -3 -7 -12 -17 -21 -14 -14 -14 -18 -2 -26 8 -5 25
-9 39 -10 16 0 19 -3 10 -6 -8 -3 -18 -11 -22 -17 -5 -7 -14 -3 -28 11 -25 27
-26 49 -2 62 20 12 22 13 22 7z m-2108 -126 c-3 -29 0 -40 9 -40 8 0 -8 -12
-35 -26 -27 -13 -50 -23 -51 -22 -1 2 -7 11 -12 21 -9 17 -12 15 -27 -17 -9
-20 -23 -36 -31 -36 -8 0 -15 -4 -15 -9 0 -9 -98 -72 -115 -73 -5 -1 -14 -7
-20 -14 -5 -7 -51 -45 -100 -86 -116 -94 -113 -91 -191 -168 -36 -36 -71 -65
-77 -66 -27 -2 -29 -5 -19 -17 9 -10 5 -22 -15 -50 -14 -20 -32 -37 -39 -37
-7 0 -15 -13 -19 -29 -3 -17 -14 -31 -26 -34 -13 -3 -19 -14 -19 -32 0 -19 -6
-29 -20 -32 -11 -3 -19 -10 -18 -17 1 -6 -28 -70 -64 -142 -61 -120 -158 -380
-158 -424 0 -22 -16 -35 -25 -20 -9 15 -19 12 -32 -9 -15 -24 1 -93 20 -85 10
3 12 -5 9 -31 -5 -44 -23 -53 -56 -28 -30 21 -32 37 -10 78 8 16 11 31 6 33
-26 8 66 302 153 487 75 161 268 445 301 445 8 0 13 4 10 9 -7 10 160 176 244
243 71 56 188 136 265 178 104 57 110 60 126 60 9 0 22 7 29 15 20 24 26 18
22 -25z m967 -77 c16 -16 32 -40 35 -55 l6 -28 -86 0 -86 0 15 -22 c16 -24 59
-29 122 -12 28 7 29 6 15 -11 -53 -63 -168 -41 -185 36 -8 35 18 92 48 107 41
20 85 14 116 -15z m-258 -3 c20 -16 22 -21 9 -29 -10 -7 -19 -6 -31 5 -30 27
-98 12 -86 -20 5 -12 20 -16 57 -16 37 0 55 -5 70 -20 26 -26 25 -36 -5 -65
-33 -34 -114 -36 -147 -3 -20 20 -21 23 -6 26 9 2 28 -4 41 -13 28 -18 68 -12
88 12 18 21 -5 33 -63 33 -49 0 -78 18 -78 49 0 52 104 81 151 41z m419 -8 c0
-4 18 -6 41 -4 36 4 40 2 37 -14 -2 -15 -11 -18 -35 -16 -39 4 -58 -21 -68
-90 -4 -31 -11 -48 -20 -48 -23 0 -23 11 -8 98 13 68 19 82 34 82 11 0 19 -3
19 -8z m156 -30 c6 -4 15 -39 20 -79 l9 -72 45 54 c41 48 80 71 80 45 0 -5
-26 -39 -57 -74 -72 -80 -98 -86 -106 -23 -21 155 -20 169 9 149z m-967 -46
c12 -14 51 -117 51 -134 0 -8 -7 -12 -16 -10 -10 2 -25 27 -38 63 -23 67 -47
80 -92 51 -29 -20 -30 -40 -5 -106 17 -45 18 -52 4 -57 -19 -7 -22 -2 -53 87
-21 61 -23 72 -10 80 8 5 16 5 18 1 2 -5 14 1 28 14 36 34 90 39 113 11z
m1245 16 c2 -4 1 -14 -4 -21 -11 -19 -41 -6 -34 14 6 16 29 20 38 7z m-1520
-47 c7 -20 -23 -33 -34 -14 -5 7 -6 17 -4 21 9 13 32 9 38 -7z m1490 -13 c5
-8 -50 -140 -65 -156 -6 -6 -13 -6 -19 0 -7 7 0 35 22 87 29 70 48 91 62 69z
m-1431 -108 c35 -70 39 -94 17 -94 -13 0 -91 156 -83 164 16 16 32 0 66 -70z
m1605 26 c34 -21 57 -63 47 -88 -7 -20 -33 2 -37 31 -4 26 -50 51 -79 42 -24
-8 -54 -66 -46 -89 3 -8 17 -22 30 -31 20 -13 29 -14 51 -4 21 10 29 10 39 0
9 -9 9 -14 -3 -22 -50 -32 -123 -8 -146 48 -12 28 -12 38 0 67 27 65 83 83
144 46z m-1926 -86 c15 -14 20 -15 33 -4 11 9 19 10 26 3 7 -7 5 -14 -6 -23
-21 -17 -19 -26 13 -71 27 -39 49 -48 69 -28 19 19 26 -11 7 -32 -36 -39 -64
-22 -136 85 -4 6 -12 5 -21 -3 -20 -16 -33 4 -16 25 9 11 9 18 1 26 -15 15
-15 38 0 38 6 0 20 -7 30 -16z m1043 6 c3 -5 12 -7 20 -3 10 3 15 -1 15 -15 0
-26 27 -36 47 -16 8 8 14 16 12 18 -2 2 -13 8 -24 15 -17 10 -12 11 30 6 28
-4 54 -13 58 -21 10 -18 25 -18 29 -1 2 11 19 10 88 -3 139 -28 198 -48 335
-116 137 -68 351 -219 370 -261 5 -13 15 -23 21 -23 6 0 19 -9 30 -21 12 -13
14 -19 5 -17 -7 2 -16 -3 -19 -11 -3 -10 2 -13 22 -9 26 5 56 -16 42 -29 -4
-4 -11 -1 -16 6 -11 19 -40 6 -40 -19 0 -11 -4 -20 -10 -20 -11 0 -23 58 -18
86 2 11 -4 20 -16 22 -11 2 -16 0 -12 -7 4 -6 2 -11 -3 -11 -6 0 -11 9 -11 21
0 16 -5 20 -22 17 -13 -2 -22 -9 -20 -17 2 -8 -15 2 -37 22 -21 19 -50 42 -63
51 -18 12 -23 24 -23 51 2 38 -19 49 -30 15 -6 -18 -8 -18 -54 10 -70 43 -237
121 -301 140 -48 14 -55 19 -52 39 3 19 0 22 -16 17 -11 -4 -31 -2 -45 3 -20
8 -28 7 -34 -3 -6 -10 -24 -11 -83 -3 -41 5 -83 13 -92 18 -10 5 -23 6 -31 3
-7 -2 -26 0 -42 6 -21 8 -30 8 -36 -1 -4 -7 -41 -13 -93 -15 -77 -2 -86 0 -91
17 -7 21 -25 26 -25 6 0 -13 -68 -54 -83 -49 -5 1 -15 -2 -23 -8 -7 -7 -23
-10 -36 -9 -13 2 -34 -4 -48 -14 -13 -9 -31 -17 -40 -17 -8 0 -72 -29 -141
-63 -117 -59 -283 -172 -338 -231 -14 -14 -30 -26 -38 -26 -7 0 -12 -4 -10 -8
4 -14 -61 -82 -79 -82 -10 0 -14 -5 -10 -15 3 -8 -10 -35 -30 -60 -51 -68
-128 -206 -154 -277 -24 -66 -40 -93 -40 -67 0 20 -45 40 -60 25 -7 -6 -4 7 5
29 9 22 21 51 27 65 36 93 125 242 162 272 12 10 17 18 13 18 -23 0 197 240
220 240 7 0 13 4 13 9 0 11 86 71 101 71 5 0 9 4 9 9 0 19 189 119 317 167 62
24 63 24 75 4 14 -23 38 -26 56 -8 13 13 16 29 5 27 -5 -1 -17 0 -28 1 -31 3
123 39 189 44 32 3 61 7 64 10 9 10 130 7 137 -4z m1075 -55 c56 -29 78 -96
46 -140 -13 -17 -16 -16 -73 28 -32 26 -62 47 -66 47 -14 0 -7 -58 9 -70 8 -8
31 -16 51 -19 53 -9 55 -31 3 -31 -55 0 -110 50 -110 100 0 23 10 42 34 66 37
37 62 42 106 19z m-2185 -95 c0 -10 -10 -15 -27 -15 -29 -1 -68 -30 -68 -51 0
-26 22 -25 67 5 69 46 103 38 103 -24 0 -49 -74 -110 -119 -98 -30 8 -21 27
15 31 34 4 74 38 74 64 0 26 -27 22 -68 -8 -57 -44 -102 -32 -102 27 0 37 62
91 98 87 16 -2 27 -9 27 -18z m3015 0 c-20 -13 -30 -12 -30 1 0 5 4 8 9 4 5
-3 13 0 16 6 4 5 10 8 13 4 4 -3 0 -10 -8 -15z m-325 -60 c4 -13 -2 -28 -21
-47 -27 -28 -27 -28 -11 -2 9 16 12 31 7 39 -5 8 -6 18 -4 22 9 14 22 9 29
-12z m439 -52 c7 -13 17 -35 20 -51 4 -15 23 -45 42 -67 40 -45 33 -54 -12
-15 -16 14 -32 25 -36 25 -13 0 -55 94 -50 113 5 23 19 21 36 -5z m-394 -50
c0 -10 -5 -18 -11 -18 -6 0 -9 7 -6 15 4 8 2 17 -4 20 -5 4 -6 11 -3 17 8 13
24 -10 24 -34z m-2917 26 c3 -4 0 -16 -8 -28 -24 -34 -17 -56 32 -102 36 -33
45 -46 36 -55 -17 -17 -157 99 -142 117 6 7 18 10 26 7 10 -4 14 -2 10 4 -17
28 24 78 46 57z m4131 -121 c2 -10 8 -37 11 -61 7 -41 6 -43 -28 -57 -19 -8
-48 -31 -65 -52 -41 -53 -122 -179 -122 -192 0 -5 -11 -21 -25 -35 -27 -27
-33 -56 -12 -56 8 0 11 -12 9 -38 -5 -56 28 -88 95 -90 50 -2 59 4 41 33 -3 6
-8 26 -12 45 -6 32 -5 33 6 10 40 -87 42 -92 27 -101 -11 -6 -11 -11 -1 -21 9
-9 12 -9 12 0 0 7 4 12 8 12 5 0 8 -22 8 -50 l-1 -50 -74 -12 c-41 -7 -79 -18
-86 -25 -7 -7 -16 -8 -21 -3 -6 6 -78 -3 -178 -21 -93 -17 -172 -27 -176 -22
-4 4 -11 33 -14 63 l-7 56 50 13 c27 7 56 20 65 30 20 21 24 87 8 103 -7 7
-12 20 -12 29 0 10 -48 53 -116 104 -150 113 -189 135 -241 135 l-41 0 -10 58
c-6 31 -9 58 -8 59 0 0 100 17 221 37 121 20 232 39 246 42 25 5 26 3 36 -56
9 -58 9 -61 -13 -66 -30 -8 -46 -27 -38 -47 3 -8 30 -34 61 -56 l55 -42 21 27
c25 32 57 94 57 110 0 13 -22 24 -51 24 -12 0 -19 7 -19 19 0 11 -4 21 -9 23
-11 4 -24 78 -14 78 4 1 80 14 168 29 197 35 183 34 189 14z m-4307 -9 c9 -23
-11 -38 -26 -20 -13 16 -7 36 10 36 5 0 12 -7 16 -16z m107 -70 c75 -52 84
-62 62 -70 -20 -7 -154 86 -149 104 7 19 18 15 87 -34z m1723 -6 c-3 -7 -5 -2
-5 12 0 14 2 19 5 13 2 -7 2 -19 0 -25z m-1897 -19 c0 -6 -15 -38 -32 -71 -32
-58 -33 -60 -14 -74 32 -23 43 -17 78 46 18 33 36 60 40 60 20 0 16 -26 -11
-77 -17 -31 -31 -59 -31 -62 0 -4 20 -17 45 -31 47 -26 55 -37 30 -46 -10 -4
-184 78 -213 102 -9 6 82 164 94 164 8 0 14 -5 14 -11z m2600 -55 c-14 -25
-15 -25 -24 -5 -11 25 11 58 27 42 7 -7 6 -19 -3 -37z m787 -119 c13 -70 22
-129 20 -131 -2 -2 -28 -6 -59 -10 l-55 -6 -6 31 c-4 17 -18 43 -33 57 -23 23
-31 26 -80 22 -30 -3 -56 -7 -59 -9 -7 -7 52 -314 71 -372 19 -56 42 -71 105
-68 l46 2 12 -62 c7 -33 10 -63 7 -66 -6 -7 -181 -41 -246 -48 -25 -3 -61 -10
-80 -15 -58 -14 -147 -23 -153 -14 -3 5 -8 34 -12 66 -7 53 -6 56 16 63 91 25
109 56 86 146 -8 30 -24 111 -37 181 -19 106 -21 131 -11 156 7 17 21 32 32
35 11 3 19 14 19 25 0 11 7 22 15 26 8 3 15 13 15 22 0 10 5 14 14 11 8 -3 20
1 26 9 10 11 9 14 -6 15 -12 0 -14 3 -6 6 20 8 316 61 326 59 5 -1 20 -60 33
-131z m-635 8 c14 -13 21 -14 27 -5 5 9 12 8 27 -3 15 -12 16 -16 5 -24 -17
-11 1 -23 23 -15 9 3 16 2 17 -2 0 -5 2 -17 4 -27 2 -12 -7 -22 -30 -31 -44
-19 -65 -52 -65 -103 0 -31 -4 -43 -17 -46 -35 -10 -93 -18 -93 -13 0 3 -9 51
-19 108 -32 167 -35 151 34 164 33 7 62 12 64 13 3 1 13 -7 23 -16z m-190 -89
c24 -118 23 -127 -27 -135 -36 -6 -44 -3 -77 27 -33 29 -96 55 -163 66 -11 2
-25 14 -32 28 -7 14 -13 19 -13 12 0 -7 4 -22 10 -32 6 -10 6 -28 2 -40 -8
-21 -8 -21 -20 4 -9 19 -9 26 0 26 6 0 9 2 6 5 -9 9 -106 -30 -132 -52 -14
-13 -26 -32 -26 -43 0 -23 33 -60 55 -60 8 0 15 -6 15 -14 0 -8 30 -31 67 -51
57 -31 73 -36 107 -31 51 9 63 19 76 67 10 34 14 39 41 39 16 0 46 -7 67 -15
73 -31 110 -85 137 -200 33 -144 -10 -220 -165 -296 -41 -20 -168 -23 -236 -5
-95 25 -123 22 -135 -13 -8 -23 -18 -30 -51 -35 -22 -4 -42 -5 -44 -4 -1 2 -5
21 -8 43 -3 22 -12 72 -21 110 -8 39 -18 86 -21 106 l-6 36 43 7 c38 6 46 4
62 -15 10 -12 16 -28 13 -34 -13 -34 122 -115 191 -115 21 0 22 3 13 20 -7 12
-7 20 -1 20 5 0 13 -9 16 -20 4 -11 15 -20 26 -20 16 0 19 5 14 20 -4 11 -2
20 4 20 6 0 11 -7 11 -15 0 -10 10 -15 27 -15 25 0 26 0 8 20 -10 11 -15 23
-11 27 4 4 15 -2 24 -14 l17 -23 33 26 c34 27 44 75 20 91 -7 4 -53 10 -103
13 l-90 5 78 14 c43 8 80 18 83 22 3 5 -75 8 -171 8 -233 0 -285 18 -333 113
-74 150 -7 284 170 339 70 21 143 22 281 3 44 -6 49 -5 54 15 3 12 16 24 32
27 14 3 31 7 36 9 23 8 30 -6 47 -91z m-1232 42 c0 -3 -4 -8 -10 -11 -5 -3
-10 -1 -10 4 0 6 5 11 10 11 6 0 10 -2 10 -4z m0 -58 c0 -5 -4 -8 -10 -8 -5 0
-10 10 -10 23 0 18 2 19 10 7 5 -8 10 -18 10 -22z m455 2 c-3 -5 -12 -7 -20
-3 -21 7 -19 13 6 13 11 0 18 -4 14 -10z m0 -80 c-3 -5 -12 -10 -18 -10 -7 0
-6 4 3 10 19 12 23 12 15 0z m-66 -60 c40 -28 66 -85 66 -147 0 -58 -20 -93
-73 -129 l-32 -22 35 -6 c56 -11 83 -42 106 -126 12 -41 26 -85 32 -98 14 -30
43 -24 38 8 -9 66 -6 85 14 88 39 5 56 -19 56 -83 2 -118 -2 -166 -12 -159 -6
3 -8 12 -5 20 7 19 -1 18 -37 -8 -41 -29 -137 -36 -189 -15 -40 17 -57 44 -81
125 -12 38 -13 52 -4 52 9 0 8 3 -1 8 -7 5 -14 18 -17 30 -7 38 -25 62 -52 68
-32 8 -213 -26 -214 -40 0 -6 -2 -21 -5 -33 -2 -12 1 -25 6 -28 6 -3 10 -11
10 -16 0 -6 -5 -7 -12 -3 -8 5 -9 0 -6 -14 4 -12 2 -20 -3 -16 -5 3 -9 -2 -9
-10 0 -9 -4 -16 -9 -16 -6 0 -10 -8 -10 -17 1 -10 -2 -35 -6 -55 -6 -30 -4
-39 8 -44 9 -3 13 -12 10 -22 -5 -12 -2 -14 11 -9 10 4 24 7 31 7 8 0 11 7 8
20 -3 11 -9 20 -14 20 -4 0 -7 13 -6 29 1 16 6 27 11 23 5 -3 6 3 3 12 -6 14
-3 17 9 12 12 -4 14 -1 9 14 -8 26 2 25 25 -2 15 -19 27 -23 74 -21 l55 2 11
-55 c7 -30 10 -61 7 -68 -3 -7 -67 -24 -149 -39 -79 -15 -180 -36 -224 -47
-43 -10 -81 -17 -83 -15 -2 2 -7 23 -11 47 -5 24 -12 51 -15 61 -6 14 3 21 43
38 31 13 54 30 61 45 14 31 14 57 1 49 -6 -4 -10 7 -10 27 0 47 -48 264 -65
299 -17 32 -50 44 -100 36 -19 -3 -37 -3 -39 1 -2 4 -7 32 -11 63 l-7 57 98
23 c55 12 119 23 144 23 l44 1 2 -50 c1 -27 2 -51 3 -52 0 -2 2 -6 3 -10 0 -5
8 -13 16 -19 9 -6 17 -21 19 -34 4 -26 33 -64 52 -68 16 -3 142 24 196 42 40
14 52 38 40 84 -8 34 -45 43 -118 31 -34 -6 -78 -12 -97 -13 -31 -3 -36 -7
-41 -37 -4 -19 -7 -26 -8 -16 0 10 -6 28 -13 40 -7 12 -11 33 -9 46 1 13 -2
27 -8 30 -6 4 -8 16 -5 28 5 18 22 25 102 44 222 50 291 52 351 9z m75 25 c-4
-8 -8 -15 -10 -15 -2 0 -4 7 -4 15 0 8 4 15 10 15 5 0 7 -7 4 -15z m56 1 c0
-3 -4 -8 -10 -11 -5 -3 -10 -1 -10 4 0 6 5 11 10 11 6 0 10 -2 10 -4z m-1673
-153 c-1 -1 -10 5 -20 12 -16 11 -17 17 -6 37 13 23 13 23 20 -12 4 -19 7 -36
6 -37z m1676 24 c4 -10 -2 -13 -20 -9 -18 3 -21 7 -11 13 18 12 25 11 31 -4z
m-974 -47 c16 -73 15 -77 -24 -90 -46 -15 -75 -47 -75 -80 0 -15 11 -78 25
-140 14 -62 25 -131 25 -152 0 -31 7 -46 31 -70 27 -28 34 -30 74 -25 l44 7
10 -38 c22 -88 22 -90 4 -96 -65 -18 -447 -95 -452 -91 -2 2 -9 31 -16 65 -12
55 -11 62 4 66 50 16 83 37 91 59 15 40 -7 209 -45 342 -18 62 -38 76 -102 72
l-47 -3 -13 58 c-7 32 -11 61 -9 65 7 10 397 98 443 100 18 1 23 -7 32 -49z
m-522 -105 c11 -61 9 -63 -45 -85 -18 -7 -39 -25 -47 -41 -13 -25 -12 -39 11
-141 14 -62 30 -121 35 -132 6 -10 12 -39 15 -64 2 -25 11 -54 20 -64 13 -13
15 -29 11 -62 -6 -42 -5 -44 16 -39 12 3 28 10 35 16 7 5 12 6 12 0 0 -5 16
-7 36 -5 34 4 35 3 32 -24 -3 -26 -8 -29 -53 -37 -27 -5 -124 -26 -214 -48
-89 -21 -166 -37 -170 -34 -14 8 -34 119 -23 123 6 2 26 13 44 26 33 22 33 22
33 104 -1 44 -3 83 -5 86 -3 2 -68 -13 -145 -33 -155 -40 -142 -29 -132 -116
8 -67 48 -100 105 -89 26 5 29 2 40 -34 20 -66 16 -91 -15 -99 -16 -3 -36 -6
-46 -5 -10 0 -21 -6 -24 -14 -3 -7 -8 -12 -12 -9 -4 2 -79 -14 -166 -36 -87
-22 -161 -36 -165 -32 -7 8 -30 93 -30 112 0 6 18 15 40 21 52 14 70 42 70
107 0 52 -4 73 -41 228 -25 103 -51 130 -119 122 l-46 -6 -16 64 -15 63 96 22
c53 12 148 35 211 52 63 17 121 31 129 32 9 1 19 -18 27 -49 19 -69 18 -74
-13 -86 -50 -19 -63 -38 -63 -91 0 -33 5 -50 14 -54 13 -5 274 60 284 71 3 2
-6 26 -19 52 -24 47 -25 48 -75 51 l-52 3 -11 44 c-21 83 -23 80 97 109 59 13
123 25 142 25 19 0 64 11 100 25 94 35 95 35 107 -29z m1548 -155 c3 -5 1 -10
-4 -10 -6 0 -11 5 -11 10 0 6 2 10 4 10 3 0 8 -4 11 -10z m-2559 -47 c3 -21
14 -78 24 -126 l18 -88 -22 -8 c-11 -5 -37 -11 -57 -14 -35 -5 -37 -4 -48 33
-17 59 -55 83 -115 76 -27 -3 -51 -8 -54 -10 -6 -7 44 -282 64 -353 20 -69 53
-96 114 -91 l45 3 11 -63 c9 -47 9 -64 0 -67 -20 -6 -410 -74 -441 -77 -29 -3
-30 -1 -42 57 -6 32 -10 62 -7 66 2 3 18 9 36 13 44 9 78 43 78 78 0 41 -48
278 -64 313 -20 45 -28 85 -16 85 5 0 10 -6 10 -12 0 -7 8 1 16 19 9 18 21 31
28 30 7 -1 10 12 10 33 -1 19 0 29 3 23 8 -21 23 -15 33 13 7 17 15 24 25 20
8 -3 17 -1 20 4 3 4 -1 10 -7 13 -7 2 -11 7 -8 9 7 8 268 56 307 57 29 1 33
-2 39 -36z m4488 2 c-4 -8 -2 -15 4 -15 6 0 8 -9 5 -20 -3 -11 -12 -20 -19
-20 -16 0 -16 -2 -8 -24 3 -9 10 -13 15 -10 5 3 9 -34 9 -84 0 -74 -3 -91 -16
-96 -14 -5 -15 -4 -5 8 18 22 5 35 -27 27 -24 -7 -27 -12 -27 -49 0 -34 3 -41
23 -45 26 -5 41 11 21 24 -11 7 -10 9 4 9 21 0 21 -6 1 -128 -29 -183 -98
-415 -166 -562 -17 -36 -37 -80 -45 -98 -13 -31 -33 -36 -33 -7 0 14 -48 30
-59 20 -3 -4 6 -17 22 -30 15 -13 27 -34 27 -47 0 -21 -79 -163 -119 -214 -17
-22 -17 -22 -30 -2 -19 31 -36 8 -23 -30 10 -30 1 -64 -12 -43 -12 18 -27 2
-21 -22 7 -30 -73 -121 -98 -111 -9 3 -17 14 -17 24 0 16 -18 30 -41 30 -20 0
-8 -50 16 -66 14 -9 25 -21 25 -27 0 -16 -41 -57 -57 -57 -8 0 -12 -4 -9 -8
10 -17 -158 -166 -304 -269 -83 -58 -234 -153 -245 -153 -3 0 -5 9 -5 20 0 11
-4 20 -10 20 -5 0 -10 -13 -10 -28 0 -28 -29 -52 -64 -52 -8 0 -19 -7 -26 -15
-16 -19 -187 -85 -336 -129 -192 -57 -518 -106 -499 -76 3 6 3 10 -2 10 -4 0
-19 3 -32 7 -21 5 -23 3 -19 -15 6 -20 3 -21 -118 -21 -131 -1 -264 13 -274
29 -3 5 -20 7 -37 5 -21 -3 -33 1 -37 11 -5 12 -9 12 -25 2 -15 -9 -33 -9 -84
1 -115 23 -219 57 -229 75 -8 14 -12 15 -24 5 -12 -10 -17 -10 -27 0 -9 10 -7
16 11 31 12 10 22 21 22 24 0 9 -58 -15 -70 -30 -9 -10 -17 -11 -32 -3 -11 6
-31 9 -44 6 -15 -3 -24 0 -24 9 0 13 -53 44 -77 44 -10 0 -12 10 -7 40 7 45 2
49 -29 20 -14 -14 -29 -19 -44 -15 -13 3 -23 2 -22 -2 3 -19 -2 -33 -11 -33
-6 0 -8 10 -4 24 8 34 -21 42 -50 13 -30 -29 -86 -61 -93 -53 -4 3 -1 6 5 6 6
0 13 9 17 19 3 11 11 18 18 15 7 -2 28 9 47 26 29 25 31 30 13 25 -13 -4 -23
-2 -23 4 0 15 -51 39 -77 36 -12 -1 -20 2 -17 7 3 4 14 8 25 8 14 0 19 7 19
25 0 22 -3 25 -26 19 -19 -5 -29 -1 -40 15 -22 30 -46 28 -38 -4 5 -18 2 -25
-9 -25 -9 0 -13 7 -11 17 3 13 -12 30 -53 58 -79 54 -180 143 -273 238 -78 79
-78 80 -59 100 10 12 19 24 19 29 0 14 -16 9 -35 -13 l-19 -20 -17 23 c-16 21
-16 23 2 36 24 16 25 34 2 30 -10 -1 -23 1 -30 5 -6 4 -15 2 -18 -3 -8 -13
-55 46 -55 67 0 8 -7 16 -15 19 -14 6 -60 71 -60 87 0 4 -5 11 -11 15 -7 4
-26 32 -44 61 -30 52 -31 56 -14 68 17 12 17 14 -2 27 -14 10 -21 11 -26 3 -9
-15 -13 -10 -42 55 l-25 56 20 26 c18 23 12 45 -9 32 -5 -3 -8 5 -8 16 1 13
-8 27 -21 33 -21 11 -18 37 3 37 5 -1 8 5 6 13 -1 7 4 15 13 19 10 4 17 -3 21
-22 4 -15 12 -30 18 -34 16 -11 54 -10 58 1 2 5 12 11 23 13 17 3 20 -2 17
-34 -3 -30 0 -37 19 -43 14 -5 25 -3 30 6 30 52 33 52 64 -8 79 -155 197 -329
295 -435 33 -36 60 -71 60 -77 0 -6 6 -11 14 -11 8 0 16 -4 18 -8 2 -5 35 -37
73 -72 50 -45 69 -68 67 -83 -3 -16 1 -19 22 -15 15 3 31 0 36 -8 6 -7 40 -31
76 -55 49 -32 63 -46 59 -59 -3 -10 0 -22 6 -26 9 -5 10 -2 6 9 -3 10 -2 17 4
17 17 0 74 -32 82 -46 4 -8 12 -14 17 -14 13 0 60 -41 60 -52 0 -5 -4 -6 -10
-3 -5 3 -15 3 -20 0 -15 -10 8 -35 25 -29 20 8 27 34 14 50 -6 7 24 -4 67 -24
44 -21 95 -44 114 -51 19 -7 44 -17 55 -21 96 -40 316 -92 460 -110 108 -14
407 -15 488 -2 34 5 60 5 63 0 3 -5 11 -5 18 1 8 7 182 51 202 51 1 0 5 -11 8
-25 4 -16 11 -22 21 -19 8 4 13 10 10 14 -3 5 7 10 22 12 21 2 28 8 26 24 -2
16 9 24 55 39 31 11 81 30 111 43 l54 23 -6 -35 c-7 -42 11 -63 41 -47 24 13
36 51 17 51 -10 0 -11 8 -6 28 5 17 14 26 24 24 10 -2 17 2 17 9 0 8 5 7 16
-2 14 -11 19 -10 34 9 17 21 19 21 29 5 8 -14 12 -15 22 -6 10 10 9 14 -4 19
-9 3 -17 10 -17 14 0 5 37 31 83 59 45 27 102 65 126 84 26 20 51 33 59 29 9
-3 13 -1 9 5 -5 9 63 74 104 98 9 6 59 56 110 113 51 56 96 102 101 102 4 0 8
5 8 10 0 6 22 38 48 73 75 97 159 233 210 339 39 80 51 97 70 98 12 0 22 6 22
15 0 9 -6 12 -16 8 -12 -4 -14 0 -8 23 4 16 10 31 14 34 3 3 11 25 17 50 39
152 67 229 87 235 19 7 20 8 3 12 -16 4 -18 11 -12 50 9 61 14 71 36 78 22 7
24 16 7 33 -7 7 -14 30 -15 53 -2 30 1 41 15 46 36 14 48 65 19 84 -5 4 -5 14
2 27 6 11 11 29 11 40 0 11 7 23 16 26 13 5 14 9 4 21 -15 18 -7 19 20 3 14
-9 23 -10 28 -3 4 6 27 17 52 24 25 7 50 15 55 16 24 8 34 4 29 -10z m-5109
-85 c4 -6 16 -8 26 -5 11 4 26 1 34 -5 20 -17 19 -31 -2 -23 -11 4 -14 3 -9
-5 4 -7 18 -12 32 -12 33 0 35 -45 2 -55 -47 -14 -68 -45 -68 -97 0 -54 -3
-56 -69 -60 l-45 -3 -17 85 c-10 47 -19 105 -21 130 -3 44 -3 45 32 51 57 10
98 10 105 -1z m4768 -81 c-7 -7 -12 -3 -15 16 -5 25 -4 25 10 11 12 -11 13
-19 5 -27z m20 -64 c3 -11 1 -45 -3 -75 -4 -30 -8 -43 -9 -27 0 15 -7 27 -13
28 -10 0 -10 2 0 6 21 8 13 30 -15 44 -16 8 -29 21 -31 28 -3 12 0 12 12 2 22
-18 39 -5 25 20 -9 18 -8 19 10 7 11 -6 22 -21 24 -33z m-381 5 c77 -22 101
-101 51 -161 -17 -20 -23 -34 -16 -36 6 -2 31 -20 55 -39 24 -18 53 -34 66
-34 50 0 35 -53 -18 -65 -24 -5 -38 1 -86 40 -68 56 -98 68 -141 60 -36 -6
-36 -7 -27 -53 5 -26 10 -30 36 -28 33 1 60 -26 43 -43 -6 -6 -45 -18 -88 -27
-61 -12 -81 -13 -92 -4 -22 18 -18 39 10 52 21 10 24 16 19 42 -40 211 -37
201 -67 204 -33 4 -46 28 -26 47 8 8 59 23 114 34 121 23 121 23 167 11z
m-554 -119 c153 -79 147 -290 -10 -356 -82 -34 -170 -9 -231 67 -32 40 -44
101 -33 163 8 42 67 112 111 131 44 19 120 17 163 -5z m898 -21 c29 0 31 -25
8 -115 -9 -33 -18 -70 -21 -82 -4 -18 -10 -21 -33 -17 -15 4 -31 1 -34 -5 -4
-6 -11 -9 -15 -7 -4 3 3 45 15 93 13 48 23 101 23 117 1 21 5 27 17 22 9 -3
27 -6 40 -6z m-3889 -57 c-3 -10 -5 -4 -5 12 0 17 2 24 5 18 2 -7 2 -21 0 -30z
m2474 -3 c24 -13 24 -25 0 -47 -19 -18 -19 -19 0 -113 24 -113 18 -148 -36
-200 -32 -31 -42 -35 -103 -38 -62 -3 -70 -1 -109 26 -37 28 -43 38 -57 99 -8
37 -18 87 -22 110 -5 32 -11 43 -28 45 -22 3 -34 34 -19 49 4 4 39 15 75 22
56 12 71 12 85 1 22 -16 7 -47 -26 -52 -25 -4 -25 -3 -1 -117 13 -65 24 -94
40 -107 41 -33 114 -17 140 32 7 13 4 47 -10 115 -11 54 -20 98 -20 99 0 2
-13 1 -28 -2 -17 -2 -33 2 -40 11 -22 26 -3 45 56 57 32 6 62 13 67 15 6 2 11
4 13 4 2 1 12 -4 23 -9z m-658 -143 c18 -8 49 -32 69 -55 77 -85 58 -222 -40
-288 l-32 -22 33 -5 c21 -3 43 2 65 15 26 16 35 18 47 8 21 -18 19 -33 -10
-60 -19 -18 -41 -24 -102 -30 -43 -4 -95 -14 -116 -23 -61 -26 -90 -2 -56 49
24 37 24 41 -5 48 -37 9 -87 56 -107 101 -60 132 30 273 174 275 26 0 62 -6
80 -13z m2042 -69 c-17 -79 -132 -336 -202 -451 -101 -164 -246 -344 -350
-431 -20 -17 -48 -42 -62 -56 -81 -80 -354 -260 -394 -260 -9 0 -17 -6 -20
-12 -3 -10 -10 -8 -24 5 -20 17 -21 17 -27 -7 -8 -33 -39 -49 -211 -107 l-140
-48 -23 27 -23 27 3 -30 c3 -28 1 -29 -61 -42 -69 -14 -71 -14 -75 13 -2 10
-9 20 -16 22 -9 3 -11 -1 -7 -12 7 -19 -1 -46 -14 -46 -5 0 -9 9 -9 19 0 11
-4 23 -10 26 -6 3 -10 -5 -10 -19 0 -21 -6 -25 -42 -32 -24 -4 -124 -6 -223
-6 -324 2 -600 68 -887 212 -92 47 -258 149 -286 177 -7 7 -18 13 -24 13 -6 0
-6 6 2 15 16 19 5 32 -13 17 -22 -18 -187 124 -172 147 3 6 -2 11 -12 11 -28
0 -95 73 -87 93 3 9 12 17 20 17 17 0 18 22 2 38 -7 7 -8 12 -4 12 5 0 45 -37
90 -82 216 -217 436 -362 706 -465 131 -50 279 -88 425 -108 96 -13 444 -23
461 -13 5 3 32 9 59 12 28 4 64 10 82 12 17 3 34 0 38 -6 9 -15 25 -12 25 5 0
17 72 39 101 30 13 -4 25 -1 32 8 7 7 48 26 92 42 230 79 453 209 635 369 41
36 80 66 87 66 7 0 13 6 13 13 1 21 130 154 130 134 0 -34 25 -11 25 24 1 24
14 52 48 98 94 127 222 378 257 504 9 33 16 44 21 35 7 -9 11 -10 17 -2 4 7
18 14 32 17 14 2 26 5 28 6 2 0 0 -14 -3 -31z m-645 -75 c-57 -104 -117 -193
-189 -280 -49 -59 -64 -70 -82 -66 -19 5 -21 3 -17 -15 14 -51 -300 -262 -489
-328 l-52 -18 -26 24 c-20 19 -28 21 -38 11 -9 -10 -8 -15 6 -26 18 -13 18
-14 0 -23 -39 -20 -197 -48 -336 -58 l-78 -5 13 22 c10 17 10 23 1 26 -7 3
-13 11 -13 19 0 26 -20 14 -34 -21 -14 -32 -19 -35 -54 -35 -70 0 -100 10 -95
31 3 10 2 27 -1 36 -6 15 -8 15 -16 3 -6 -8 -10 -25 -10 -36 0 -19 -4 -21 -37
-14 -117 23 -272 74 -365 122 -58 29 -74 47 -41 44 12 0 19 7 21 22 3 16 -2
22 -16 22 -11 0 -22 -4 -24 -9 -1 -5 -15 -12 -29 -16 -23 -6 -31 -1 -55 34
-31 43 -44 51 -44 26 0 -19 -118 73 -119 93 -1 8 15 11 52 10 42 -2 61 -8 96
-35 24 -18 48 -33 52 -33 5 0 9 -7 9 -15 0 -9 6 -15 13 -14 22 4 221 -101 243
-128 18 -22 24 -25 49 -16 41 13 152 -15 159 -41 5 -20 33 -16 28 4 -2 8 3 10
15 6 10 -4 72 -10 138 -13 66 -3 123 -10 126 -15 4 -6 14 -6 25 0 11 6 60 16
109 21 50 6 115 18 145 26 30 9 73 18 95 22 22 3 47 11 55 18 8 6 31 18 50 25
100 38 292 153 335 200 25 27 38 25 33 -5 -6 -28 3 -38 25 -29 20 7 30 35 18
47 -5 5 -7 16 -4 25 5 11 2 13 -8 7 -8 -4 6 13 31 39 44 46 45 47 48 22 4 -29
17 -34 26 -10 3 8 10 13 15 9 20 -12 23 19 3 35 -20 17 -20 17 37 91 32 41 77
107 100 148 40 68 45 73 71 67 18 -3 33 0 40 9 7 8 17 15 22 15 5 0 -9 -35
-32 -77z m-1866 50 c9 -22 -14 -40 -65 -48 -21 -4 -39 -12 -39 -18 0 -7 10
-61 22 -120 l21 -109 53 7 c46 5 54 4 63 -14 17 -30 -15 -45 -154 -70 -113
-21 -120 -21 -132 -5 -18 24 -1 42 53 55 24 6 44 16 44 23 0 6 -9 59 -21 117
l-21 106 -57 -1 c-53 -1 -56 0 -56 24 0 24 6 26 100 47 128 27 181 29 189 6z
m-664 -118 c18 -22 5 -45 -31 -52 -17 -3 -32 -11 -34 -17 -2 -6 6 -60 19 -121
16 -81 26 -110 37 -108 8 1 40 7 72 13 l58 12 -6 42 c-8 49 13 78 43 59 16
-10 51 -138 40 -148 -10 -10 -304 -66 -333 -63 -22 2 -31 9 -33 26 -3 18 2 23
28 29 18 3 34 12 37 20 5 11 -18 159 -33 215 -4 13 -15 16 -47 15 -33 -2 -42
2 -45 17 -6 28 10 37 105 56 113 23 108 23 123 5z m-464 -148 c10 -23 56 -100
103 -172 47 -71 87 -143 89 -160 2 -16 10 -41 18 -56 12 -23 12 -28 -1 -33 -8
-3 -15 -1 -15 4 0 6 -6 10 -13 10 -21 0 -193 241 -217 306 -7 19 -5 24 11 29
15 5 18 10 11 17 -6 6 -8 24 -5 39 5 26 3 29 -21 29 -38 0 -36 24 2 27 14 1
25 -10 38 -40z m3045 -152 l30 -16 -56 -62 -55 -62 31 -3 c38 -4 59 14 68 59
9 46 31 50 31 5 0 -25 -8 -45 -29 -68 -58 -65 -161 -29 -161 56 0 51 49 103
98 105 7 1 26 -6 43 -14z m-151 -195 c48 -55 56 -80 27 -80 -7 0 -17 -10 -22
-22 -16 -34 -60 -62 -87 -54 -33 8 -112 106 -98 120 9 8 23 -2 55 -36 46 -51
67 -58 97 -31 28 25 22 59 -18 103 -32 35 -38 60 -14 60 4 0 31 -27 60 -60z
m-210 -116 c72 -101 76 -110 57 -117 -21 -8 -154 182 -136 194 8 5 15 9 16 9
0 0 29 -39 63 -86z m-1676 -70 c42 -20 79 -40 82 -45 14 -23 -29 -18 -84 10
l-59 30 -12 -25 c-6 -14 -11 -28 -11 -33 0 -4 27 -20 60 -36 33 -16 60 -32 60
-36 0 -20 -24 -17 -79 11 l-61 30 -21 -42 c-27 -53 -23 -50 -42 -42 -13 5 -8
22 36 110 28 57 52 104 53 104 1 0 36 -16 78 -36z m1581 20 c8 -9 25 -34 36
-55 13 -26 26 -39 40 -39 30 0 18 -24 -14 -28 -15 -2 -32 -12 -37 -23 -26 -48
-112 -61 -125 -19 -10 32 3 56 46 86 37 25 48 53 24 61 -19 6 -75 -36 -75 -57
0 -11 -7 -20 -15 -20 -21 0 -19 43 3 63 21 20 73 47 89 47 6 0 19 -7 28 -16z
m-1431 -82 c2 -4 1 -14 -4 -21 -11 -19 -41 -6 -34 14 6 16 29 20 38 7z m1246
-86 c0 -123 -11 -127 -106 -41 -58 53 -66 64 -51 70 14 6 30 -4 66 -39 26 -25
50 -46 54 -46 4 0 7 31 7 68 0 38 3 72 7 75 18 18 23 -1 23 -87z m-1270 25 c0
-10 -50 -153 -55 -159 -2 -2 -10 0 -18 5 -12 7 -10 20 15 86 18 46 35 77 44
77 8 0 14 -4 14 -9z m86 -34 c3 -8 18 -11 44 -9 41 4 44 3 35 -20 -4 -9 -17
-13 -40 -10 -29 3 -36 0 -48 -24 -8 -16 -18 -44 -22 -61 -6 -30 -23 -42 -37
-27 -5 4 15 84 37 152 6 16 24 16 31 -1z m624 9 c0 -2 3 -11 6 -20 4 -12 0
-16 -15 -16 -14 0 -21 6 -21 20 0 11 7 20 15 20 8 0 15 -2 15 -4z m-250 -41
c0 -20 5 -25 25 -25 16 0 25 -6 25 -15 0 -9 -9 -15 -25 -15 -20 0 -25 -6 -30
-34 -10 -53 -3 -81 23 -84 30 -5 29 -32 -2 -32 -51 0 -56 8 -56 80 0 51 -4 69
-15 74 -21 8 -19 23 5 29 12 3 20 14 20 26 0 12 6 21 15 21 9 0 15 -9 15 -25z
m468 -2 c20 -17 55 -136 44 -148 -17 -17 -31 2 -41 55 -13 63 -28 80 -67 72
-46 -8 -49 -25 -32 -149 1 -5 -5 -9 -13 -11 -11 -2 -18 15 -28 65 -7 37 -15
76 -18 87 -4 16 -1 18 21 14 15 -3 29 -1 32 4 7 11 43 27 65 27 9 1 26 -7 37
-16z m-602 -18 c13 -8 24 -24 24 -35 0 -26 -3 -25 -36 5 -30 28 -65 32 -84 10
-11 -13 -6 -17 26 -30 95 -37 111 -58 75 -94 -34 -34 -130 -21 -152 21 -18 34
5 43 33 13 19 -21 32 -26 59 -23 50 5 43 29 -15 50 -27 9 -53 23 -58 30 -38
61 56 100 128 53z m398 -57 c10 -87 8 -118 -9 -118 -8 0 -15 3 -16 8 -15 158
-15 162 2 162 12 0 18 -13 23 -52z m-1322 -370 c-6 -6 -25 -11 -44 -12 -25 -2
-32 -6 -30 -18 3 -20 -40 -47 -46 -29 -2 6 -11 11 -20 11 -15 1 -15 2 1 11 18
11 24 39 7 39 -5 0 -10 7 -10 15 0 8 5 15 10 15 6 0 13 -7 16 -15 8 -21 60
-19 82 3 14 15 19 16 31 4 10 -9 11 -16 3 -24z"/>
<path d="M6168 4829 c-10 -5 -18 -17 -18 -24 0 -12 14 -15 60 -15 56 0 60 1
51 19 -17 31 -59 40 -93 20z"/>
<path d="M7130 4462 c0 -11 76 -72 89 -72 18 0 12 39 -9 60 -20 20 -80 28 -80
12z"/>
<path d="M8675 4040 c-3 -5 -2 -10 4 -10 5 0 13 5 16 10 3 6 2 10 -4 10 -5 0
-13 -4 -16 -10z"/>
<path d="M8477 3876 c-4 -10 -1 -13 9 -9 15 6 19 23 5 23 -5 0 -11 -7 -14 -14z"/>
<path d="M5907 3326 c-3 -8 1 -17 8 -20 20 -7 28 9 11 23 -10 9 -15 8 -19 -3z"/>
<path d="M7596 2883 c-28 -4 -28 -6 -22 -50 3 -24 8 -49 11 -53 7 -11 87 12
120 34 27 18 32 45 13 64 -12 12 -62 14 -122 5z"/>
<path d="M7033 2776 c-97 -44 -96 -189 2 -236 85 -41 175 19 175 117 0 85
-101 153 -177 119z"/>
<path d="M5853 2540 c-110 -67 -64 -240 63 -240 36 0 51 6 80 33 66 60 53 166
-27 209 -43 23 -76 23 -116 -2z"/>
<path d="M7346 2048 c-34 -49 -13 -82 25 -40 53 59 55 62 21 62 -21 0 -36 -7
-46 -22z"/>
<path d="M6947 1637 c-41 -35 -46 -51 -20 -61 23 -9 67 25 71 54 6 38 -11 40
-51 7z"/>
</g>
</svg>
