<svg version="1.1" id="Layer_1" xmlns="http://www.w3.org/2000/svg" xmlns:xlink="http://www.w3.org/1999/xlink" x="0px" y="0px"
	 width="100%" viewBox="0 0 801 801" enable-background="new 0 0 801 801" xml:space="preserve">
<path fill="#000000" opacity="1.000000" stroke="none" 
	d="
M375.000000,802.000000 
	C250.000000,802.000000 125.500000,802.000000 1.000000,802.000000 
	C1.000000,535.000000 1.000000,268.000000 1.000000,1.000000 
	C268.000000,1.000000 535.000000,1.000000 802.000000,1.000000 
	C802.000000,268.000000 802.000000,535.000000 802.000000,802.000000 
	C659.833313,802.000000 517.666687,802.000000 375.000000,802.000000 
M242.999985,327.500000 
	C242.999985,349.920807 242.999985,372.341583 242.999985,394.673584 
	C262.677643,394.673584 281.738647,394.673584 301.094910,394.673584 
	C301.094910,373.113373 301.094910,351.877167 301.094910,330.135773 
	C314.865509,345.420502 328.274872,360.252014 341.616302,375.144348 
	C345.662567,379.661011 349.393555,384.463623 353.506287,388.916046 
	C356.711761,392.386261 359.511383,396.024323 365.617767,395.216064 
	C372.658569,394.284119 379.917389,394.999512 387.081543,394.999512 
	C392.673706,394.999512 398.265869,394.999481 403.884521,394.999481 
	C403.884521,390.006592 403.884521,385.694885 403.884521,381.266479 
	C391.967499,376.065887 380.103363,370.888367 367.942078,365.581177 
	C378.722839,354.454987 389.231903,343.844604 399.404877,332.921265 
	C401.565369,330.601379 403.759308,327.158234 403.801605,324.202026 
	C404.152008,299.715637 404.009125,275.222107 403.973724,250.730759 
	C403.971893,249.469025 404.020508,247.844833 403.313965,247.004837 
	C398.450409,241.222824 393.664307,235.323563 388.252411,230.082443 
	C386.289124,228.181076 382.706696,227.236160 379.818268,227.135117 
	C369.834015,226.785889 359.829987,226.988892 349.833588,227.015549 
	C348.579132,227.018906 347.325195,227.224655 345.818665,227.359161 
	C345.818665,248.986771 345.818665,270.224426 345.818665,292.580841 
	C341.409851,287.338715 337.737000,282.823883 333.908173,278.445526 
	C319.524475,261.997620 305.129883,245.558594 290.595825,229.244095 
	C289.476379,227.987503 287.254028,227.137131 285.522095,227.098633 
	C276.196655,226.891403 266.864166,227.000565 257.534119,227.000549 
	C252.768921,227.000549 248.003738,227.000549 242.999985,227.000549 
	C242.999985,260.569092 242.999985,293.534546 242.999985,327.500000 
M418.514618,254.009995 
	C428.493652,265.292999 438.472687,276.575989 448.399384,287.799774 
	C423.838989,313.523956 399.744659,338.759949 374.962158,364.716736 
	C424.662689,386.151398 473.386017,407.580414 522.320923,428.514496 
	C522.660156,427.936279 522.999329,427.358093 523.338501,426.779907 
	C503.838348,404.846222 484.338196,382.912537 464.970062,361.127350 
	C486.603821,334.238007 508.034729,307.600769 529.763306,280.593567 
	C527.584167,279.452728 526.195129,278.647583 524.743774,277.977295 
	C499.812683,266.463043 474.853302,255.009918 449.944122,243.448532 
	C433.524139,235.827332 417.196655,228.007034 400.778381,220.382126 
	C396.112732,218.215347 391.274078,216.421143 386.514740,214.456085 
	C386.012817,215.151367 385.510895,215.846634 385.008972,216.541901 
	C396.007446,228.863449 407.005920,241.184998 418.514618,254.009995 
M351.050751,471.358185 
	C349.764893,468.398590 347.999878,465.542969 347.328522,462.449982 
	C346.663086,459.384155 345.128387,458.921875 342.507294,458.964630 
	C335.860992,459.073059 329.211700,459.000641 322.179901,459.000641 
	C317.163147,487.336975 312.177460,515.497681 307.131836,543.997131 
	C313.539673,543.997131 319.693756,544.137573 325.829681,543.866577 
	C326.923401,543.818237 328.678925,542.198730 328.883942,541.077148 
	C331.773010,525.273560 334.446442,509.430603 337.307404,492.811737 
	C338.132263,494.457703 338.602448,495.282990 338.972382,496.151001 
	C345.296753,510.991699 351.681305,525.807617 357.852875,540.711731 
	C358.896057,543.230957 360.093140,544.199158 362.839569,544.067688 
	C367.825989,543.828979 372.848419,544.224060 377.819489,543.859436 
	C379.263397,543.753601 381.539917,542.162476 381.800507,540.911743 
	C383.158234,534.395081 383.879486,527.749634 385.026337,521.184570 
	C387.147736,509.041229 389.427399,496.925629 391.609131,484.792725 
	C393.125458,476.360138 394.588257,467.917938 396.159393,459.000763 
	C389.973938,459.000763 384.165680,459.173462 378.374786,458.930695 
	C375.306854,458.802094 374.413788,460.253906 373.983398,462.849548 
	C371.620972,477.098083 369.188171,491.334961 366.779510,505.575867 
	C366.444427,505.623749 366.109314,505.671661 365.774200,505.719574 
	C361.017059,494.480591 356.259918,483.241638 351.050751,471.358185 
M85.007965,516.307922 
	C85.337494,517.559753 85.858566,518.795349 85.966118,520.065979 
	C86.794357,529.850464 91.931068,536.580261 100.455910,541.075256 
	C112.958160,547.667542 125.887299,547.276489 138.631973,542.596130 
	C149.813492,538.489868 155.105606,529.384521 155.938049,517.792786 
	C156.578705,508.871674 150.357910,500.579559 139.854340,496.489441 
	C133.275650,493.927704 126.240494,492.512939 119.732574,489.807861 
	C117.344383,488.815186 114.577591,485.687836 114.401749,483.352142 
	C114.252838,481.374268 117.173500,478.203979 119.461166,477.176697 
	C127.694183,473.479462 134.773834,478.500092 136.548645,488.701294 
	C143.641739,488.701294 150.722641,488.701294 157.990265,488.701294 
	C158.336563,478.935455 155.997208,470.634888 147.771606,464.991608 
	C133.916595,455.486206 119.390579,455.994751 104.907822,463.097504 
	C93.608711,468.638916 90.523766,478.737549 92.080376,490.421448 
	C93.317245,499.705292 99.396812,505.174316 108.003059,508.015533 
	C114.422272,510.134735 120.972992,511.879913 127.310188,514.212646 
	C130.315277,515.318787 134.205414,517.296997 132.728165,521.145264 
	C131.781372,523.611633 128.300278,525.166321 125.822876,526.945435 
	C125.111313,527.456482 123.937576,527.317749 122.978256,527.490906 
	C116.444748,528.670227 109.266869,523.572510 107.871895,517.146301 
	C107.605225,515.917847 105.762688,514.207397 104.570877,514.143555 
	C98.760277,513.832214 92.922897,513.957214 87.097610,514.066833 
	C86.395607,514.080017 85.709442,514.935303 85.007965,516.307922 
M177.504456,542.069092 
	C181.713684,543.064270 185.935074,544.011047 190.129669,545.064392 
	C199.657104,547.456970 208.544128,545.115845 216.945587,540.929382 
	C226.683578,536.076843 230.919785,527.190613 230.785110,516.938049 
	C230.651794,506.791077 224.664780,499.845154 214.983765,496.509247 
	C208.295258,494.204468 201.363297,492.531281 194.852646,489.824249 
	C192.442535,488.822144 189.424973,485.674561 189.422775,483.502686 
	C189.420563,481.333679 192.432327,478.185181 194.841629,477.167023 
	C203.193970,473.637329 209.987076,478.602020 211.463181,488.735474 
	C218.547272,488.735474 225.633820,488.735474 232.962814,488.735474 
	C233.338226,478.826172 230.914627,470.551056 222.435455,464.814209 
	C208.619843,455.466949 194.305832,456.126526 179.990112,463.082520 
	C168.660431,468.587585 165.885040,478.599701 166.957596,490.359772 
	C167.620758,497.631195 174.145767,505.155914 182.932709,508.014313 
	C189.362839,510.106049 195.950226,511.776459 202.225754,514.248474 
	C204.509064,515.147888 206.693710,517.543945 207.745834,519.805054 
	C208.283890,520.961426 206.690674,523.937439 205.254166,525.042053 
	C198.882370,529.941589 184.405075,527.604675 182.869308,517.189453 
	C182.693008,515.993835 180.791183,514.199158 179.621704,514.145081 
	C173.170761,513.846619 166.698807,514.002380 160.096939,514.002380 
	C160.669449,526.645142 165.105576,536.455688 177.504456,542.069092 
M710.017395,494.523804 
	C705.263306,493.019653 700.291626,491.968445 695.842346,489.830017 
	C693.434692,488.672821 690.419067,485.657898 690.422607,483.485626 
	C690.426270,481.316833 693.446228,478.182129 695.858398,477.164307 
	C704.184692,473.650940 710.963257,478.610138 712.474915,488.731323 
	C719.559570,488.731323 726.645020,488.731323 733.957397,488.731323 
	C734.349976,478.811981 731.909790,470.540009 723.427368,464.808319 
	C709.611816,455.472931 695.298401,456.121979 680.984558,463.083160 
	C669.658447,468.591339 666.887146,478.605225 667.958008,490.362091 
	C668.620300,497.633484 675.145935,505.156158 683.932678,508.014343 
	C690.362183,510.105774 696.948914,511.776062 703.223938,514.247559 
	C705.507507,515.146973 707.692749,517.541504 708.745728,519.802185 
	C709.284241,520.958313 707.692505,523.934753 706.256531,525.039551 
	C699.883179,529.942993 685.412659,527.604980 683.869873,517.195862 
	C683.692261,515.997864 681.795959,514.199463 680.628540,514.145386 
	C674.177979,513.846558 667.706360,514.002380 660.782043,514.002380 
	C661.249268,516.537048 661.775696,518.557678 661.973633,520.610046 
	C662.862183,529.822205 667.803894,536.532593 675.599182,540.767578 
	C688.014893,547.512756 701.170410,547.336426 714.255859,542.848755 
	C724.734009,539.255249 732.375916,527.835999 731.996826,517.235107 
	C731.599304,506.118958 722.428101,496.509857 710.017395,494.523804 
M504.447357,538.047485 
	C503.612488,539.899658 502.777588,541.751831 501.764191,544.000000 
	C505.527771,544.000000 508.765961,543.542542 511.828033,544.082947 
	C522.383667,545.945984 529.401672,542.610657 532.226746,531.705444 
	C532.535400,530.513977 534.994629,529.190735 536.510986,529.121277 
	C542.825073,528.832153 549.175598,529.270386 555.482422,528.910767 
	C560.220154,528.640625 562.663452,529.609558 562.137024,535.062012 
	C561.867920,537.849121 562.974915,540.769104 563.486816,543.787109 
	C570.886841,543.787109 578.312988,543.787109 586.175781,543.787109 
	C585.748291,541.465576 585.357361,539.437439 585.003052,537.403015 
	C582.832336,524.938843 580.671326,512.472961 578.504395,500.008087 
	C576.337524,487.543732 574.252380,475.063751 571.878967,462.638794 
	C571.616516,461.264893 569.753845,459.233337 568.541138,459.165924 
	C562.233276,458.815094 555.890686,458.873444 549.572205,459.110046 
	C548.309937,459.157288 546.571167,460.308197 545.946838,461.442596 
	C538.851379,474.334930 531.934265,487.325378 524.960571,500.284821 
	C518.292664,512.676025 511.614258,525.061707 504.447357,538.047485 
M47.213253,490.627258 
	C47.930717,486.738678 48.648182,482.850067 49.392414,478.816406 
	C61.518639,478.816406 73.144493,478.816406 84.798004,478.816406 
	C85.937202,472.213318 87.034378,465.853851 88.179245,459.217926 
	C68.657967,459.217926 49.558884,459.217926 30.134758,459.217926 
	C25.151276,487.394104 20.173523,515.537903 15.179193,543.775391 
	C34.927803,543.775391 54.366264,543.775391 73.797630,543.775391 
	C74.947418,537.538147 76.057442,531.516541 77.280060,524.884216 
	C64.865654,524.884216 52.988129,524.884216 40.926506,524.884216 
	C41.689945,521.003113 42.825359,517.681152 42.870888,514.344421 
	C42.921417,510.641449 44.446907,509.892792 47.718124,509.946533 
	C57.018585,510.099274 66.323189,510.000092 75.766174,510.000092 
	C76.938507,503.585449 78.052773,497.488495 79.245834,490.960449 
	C68.335442,490.960449 58.194664,490.960449 47.213253,490.627258 
M278.557495,491.000244 
	C275.434723,491.000244 272.311951,491.000244 269.103394,491.000244 
	C269.873871,486.770874 270.561249,482.997803 271.285492,479.022217 
	C283.144501,479.022217 294.768860,479.022217 306.740082,479.022217 
	C307.887878,472.380737 309.003143,465.927551 310.165588,459.201416 
	C290.601013,459.201416 271.504822,459.201416 252.134140,459.201416 
	C247.143585,487.420441 242.167847,515.555603 237.159546,543.875000 
	C256.815491,543.875000 276.103455,543.875000 295.757019,543.875000 
	C296.899139,537.724060 298.034821,531.607910 299.286652,524.866150 
	C286.847473,524.866150 274.976837,524.866150 262.930115,524.866150 
	C263.692719,520.981689 264.828888,517.659729 264.870728,514.324097 
	C264.917450,510.597107 266.490845,509.896301 269.737183,509.947968 
	C279.035828,510.095947 288.338348,510.000092 297.764832,510.000092 
	C298.938629,503.578339 300.052765,497.482941 301.237701,491.000244 
	C293.491760,491.000244 286.515686,491.000244 278.557495,491.000244 
M470.337128,480.000031 
	C471.797668,479.934509 473.258240,479.869019 474.561066,479.810577 
	C475.715515,472.818390 476.820557,466.125397 477.943878,459.321625 
	C453.552185,459.321625 429.331696,459.321625 405.391113,459.321625 
	C404.253021,466.336121 403.172394,472.996185 402.026794,480.056915 
	C410.573700,480.056915 418.692627,480.056915 426.875610,480.056915 
	C423.120361,501.435364 419.427277,522.459900 415.643616,544.000000 
	C421.633423,544.000000 426.940979,543.802124 432.226105,544.061462 
	C436.590424,544.275635 439.847229,543.983948 439.125610,538.197021 
	C438.874786,536.185608 439.666138,534.031433 440.051208,531.955383 
	C443.240540,514.762329 446.446289,497.572205 449.717987,480.000031 
	C456.099426,480.000031 462.733521,480.000031 470.337128,480.000031 
M601.993774,500.385010 
	C599.375305,514.814331 596.756775,529.243652 594.118225,543.783875 
	C613.268799,543.783875 632.046143,543.783875 650.968567,543.783875 
	C652.113403,537.250305 653.225708,530.902344 654.457642,523.871887 
	C642.503113,523.871887 631.322205,523.871887 620.171082,523.871887 
	C621.317932,517.252441 622.325378,511.181030 623.427856,505.126862 
	C625.925659,491.410553 628.480347,477.704590 630.988708,463.990204 
	C631.595520,460.672852 630.041077,459.038788 626.773987,459.015198 
	C620.968689,458.973267 615.162903,459.003418 609.183777,459.003418 
	C606.752014,472.712433 604.376160,486.106232 601.993774,500.385010 
M496.993317,526.379761 
	C497.340912,523.629272 497.558075,520.854919 498.057190,518.132202 
	C501.330994,500.273834 504.678497,482.428986 507.969879,464.573822 
	C508.635773,460.961365 507.311005,458.935425 503.359100,458.984100 
	C497.717468,459.053619 492.074341,459.001770 486.171478,459.001770 
	C481.148071,487.406525 476.171265,515.547546 471.161896,543.872864 
	C478.815735,543.872864 486.113831,543.872864 493.630493,543.872864 
	C494.742828,538.291260 495.841705,532.777039 496.993317,526.379761 
z"/>
<path fill="#FFE51F" opacity="1.000000" stroke="none" 
	d="
M242.999985,327.000000 
	C242.999985,293.534546 242.999985,260.569092 242.999985,227.000549 
	C248.003738,227.000549 252.768921,227.000549 257.534119,227.000549 
	C266.864166,227.000565 276.196655,226.891403 285.522095,227.098633 
	C287.254028,227.137131 289.476379,227.987503 290.595825,229.244095 
	C305.129883,245.558594 319.524475,261.997620 333.908173,278.445526 
	C337.737000,282.823883 341.409851,287.338715 345.818665,292.580841 
	C345.818665,270.224426 345.818665,248.986771 345.818665,227.359161 
	C347.325195,227.224655 348.579132,227.018906 349.833588,227.015549 
	C359.829987,226.988892 369.834015,226.785889 379.818268,227.135117 
	C382.706696,227.236160 386.289124,228.181076 388.252411,230.082443 
	C393.664307,235.323563 398.450409,241.222824 403.313965,247.004837 
	C404.020508,247.844833 403.971893,249.469025 403.973724,250.730759 
	C404.009125,275.222107 404.152008,299.715637 403.801605,324.202026 
	C403.759308,327.158234 401.565369,330.601379 399.404877,332.921265 
	C389.231903,343.844604 378.722839,354.454987 367.942078,365.581177 
	C380.103363,370.888367 391.967499,376.065887 403.884521,381.266479 
	C403.884521,385.694885 403.884521,390.006592 403.884521,394.999481 
	C398.265869,394.999481 392.673706,394.999512 387.081543,394.999512 
	C379.917389,394.999512 372.658569,394.284119 365.617767,395.216064 
	C359.511383,396.024323 356.711761,392.386261 353.506287,388.916046 
	C349.393555,384.463623 345.662567,379.661011 341.616302,375.144348 
	C328.274872,360.252014 314.865509,345.420502 301.094910,330.135773 
	C301.094910,351.877167 301.094910,373.113373 301.094910,394.673584 
	C281.738647,394.673584 262.677643,394.673584 242.999985,394.673584 
	C242.999985,372.341583 242.999985,349.920807 242.999985,327.000000 
z"/>
<path fill="#FFE51F" opacity="1.000000" stroke="none" 
	d="
M418.259521,253.758270 
	C407.005920,241.184998 396.007446,228.863449 385.008972,216.541901 
	C385.510895,215.846634 386.012817,215.151367 386.514740,214.456085 
	C391.274078,216.421143 396.112732,218.215347 400.778381,220.382126 
	C417.196655,228.007034 433.524139,235.827332 449.944122,243.448532 
	C474.853302,255.009918 499.812683,266.463043 524.743774,277.977295 
	C526.195129,278.647583 527.584167,279.452728 529.763306,280.593567 
	C508.034729,307.600769 486.603821,334.238007 464.970062,361.127350 
	C484.338196,382.912537 503.838348,404.846222 523.338501,426.779907 
	C522.999329,427.358093 522.660156,427.936279 522.320923,428.514496 
	C473.386017,407.580414 424.662689,386.151398 374.962158,364.716736 
	C399.744659,338.759949 423.838989,313.523956 448.399384,287.799774 
	C438.472687,276.575989 428.493652,265.292999 418.259521,253.758270 
z"/>
<path fill="#FFE51F" opacity="1.000000" stroke="none" 
	d="
M351.276764,471.680420 
	C356.259918,483.241638 361.017059,494.480591 365.774200,505.719574 
	C366.109314,505.671661 366.444427,505.623749 366.779510,505.575867 
	C369.188171,491.334961 371.620972,477.098083 373.983398,462.849548 
	C374.413788,460.253906 375.306854,458.802094 378.374786,458.930695 
	C384.165680,459.173462 389.973938,459.000763 396.159393,459.000763 
	C394.588257,467.917938 393.125458,476.360138 391.609131,484.792725 
	C389.427399,496.925629 387.147736,509.041229 385.026337,521.184570 
	C383.879486,527.749634 383.158234,534.395081 381.800507,540.911743 
	C381.539917,542.162476 379.263397,543.753601 377.819489,543.859436 
	C372.848419,544.224060 367.825989,543.828979 362.839569,544.067688 
	C360.093140,544.199158 358.896057,543.230957 357.852875,540.711731 
	C351.681305,525.807617 345.296753,510.991699 338.972382,496.151001 
	C338.602448,495.282990 338.132263,494.457703 337.307404,492.811737 
	C334.446442,509.430603 331.773010,525.273560 328.883942,541.077148 
	C328.678925,542.198730 326.923401,543.818237 325.829681,543.866577 
	C319.693756,544.137573 313.539673,543.997131 307.131836,543.997131 
	C312.177460,515.497681 317.163147,487.336975 322.179901,459.000641 
	C329.211700,459.000641 335.860992,459.073059 342.507294,458.964630 
	C345.128387,458.921875 346.663086,459.384155 347.328522,462.449982 
	C347.999878,465.542969 349.764893,468.398590 351.276764,471.680420 
z"/>
<path fill="#FFE51F" opacity="1.000000" stroke="none" 
	d="
M85.011955,515.854126 
	C85.709442,514.935303 86.395607,514.080017 87.097610,514.066833 
	C92.922897,513.957214 98.760277,513.832214 104.570877,514.143555 
	C105.762688,514.207397 107.605225,515.917847 107.871895,517.146301 
	C109.266869,523.572510 116.444748,528.670227 122.978256,527.490906 
	C123.937576,527.317749 125.111313,527.456482 125.822876,526.945435 
	C128.300278,525.166321 131.781372,523.611633 132.728165,521.145264 
	C134.205414,517.296997 130.315277,515.318787 127.310188,514.212646 
	C120.972992,511.879913 114.422272,510.134735 108.003059,508.015533 
	C99.396812,505.174316 93.317245,499.705292 92.080376,490.421448 
	C90.523766,478.737549 93.608711,468.638916 104.907822,463.097504 
	C119.390579,455.994751 133.916595,455.486206 147.771606,464.991608 
	C155.997208,470.634888 158.336563,478.935455 157.990265,488.701294 
	C150.722641,488.701294 143.641739,488.701294 136.548645,488.701294 
	C134.773834,478.500092 127.694183,473.479462 119.461166,477.176697 
	C117.173500,478.203979 114.252838,481.374268 114.401749,483.352142 
	C114.577591,485.687836 117.344383,488.815186 119.732574,489.807861 
	C126.240494,492.512939 133.275650,493.927704 139.854340,496.489441 
	C150.357910,500.579559 156.578705,508.871674 155.938049,517.792786 
	C155.105606,529.384521 149.813492,538.489868 138.631973,542.596130 
	C125.887299,547.276489 112.958160,547.667542 100.455910,541.075256 
	C91.931068,536.580261 86.794357,529.850464 85.966118,520.065979 
	C85.858566,518.795349 85.337494,517.559753 85.011955,515.854126 
z"/>
<path fill="#FFE51F" opacity="1.000000" stroke="none" 
	d="
M177.116562,542.015259 
	C165.105576,536.455688 160.669449,526.645142 160.096939,514.002380 
	C166.698807,514.002380 173.170761,513.846619 179.621704,514.145081 
	C180.791183,514.199158 182.693008,515.993835 182.869308,517.189453 
	C184.405075,527.604675 198.882370,529.941589 205.254166,525.042053 
	C206.690674,523.937439 208.283890,520.961426 207.745834,519.805054 
	C206.693710,517.543945 204.509064,515.147888 202.225754,514.248474 
	C195.950226,511.776459 189.362839,510.106049 182.932709,508.014313 
	C174.145767,505.155914 167.620758,497.631195 166.957596,490.359772 
	C165.885040,478.599701 168.660431,468.587585 179.990112,463.082520 
	C194.305832,456.126526 208.619843,455.466949 222.435455,464.814209 
	C230.914627,470.551056 233.338226,478.826172 232.962814,488.735474 
	C225.633820,488.735474 218.547272,488.735474 211.463181,488.735474 
	C209.987076,478.602020 203.193970,473.637329 194.841629,477.167023 
	C192.432327,478.185181 189.420563,481.333679 189.422775,483.502686 
	C189.424973,485.674561 192.442535,488.822144 194.852646,489.824249 
	C201.363297,492.531281 208.295258,494.204468 214.983765,496.509247 
	C224.664780,499.845154 230.651794,506.791077 230.785110,516.938049 
	C230.919785,527.190613 226.683578,536.076843 216.945587,540.929382 
	C208.544128,545.115845 199.657104,547.456970 190.129669,545.064392 
	C185.935074,544.011047 181.713684,543.064270 177.116562,542.015259 
z"/>
<path fill="#FFE51F" opacity="1.000000" stroke="none" 
	d="
M710.370300,494.734772 
	C722.428101,496.509857 731.599304,506.118958 731.996826,517.235107 
	C732.375916,527.835999 724.734009,539.255249 714.255859,542.848755 
	C701.170410,547.336426 688.014893,547.512756 675.599182,540.767578 
	C667.803894,536.532593 662.862183,529.822205 661.973633,520.610046 
	C661.775696,518.557678 661.249268,516.537048 660.782043,514.002380 
	C667.706360,514.002380 674.177979,513.846558 680.628540,514.145386 
	C681.795959,514.199463 683.692261,515.997864 683.869873,517.195862 
	C685.412659,527.604980 699.883179,529.942993 706.256531,525.039551 
	C707.692505,523.934753 709.284241,520.958313 708.745728,519.802185 
	C707.692749,517.541504 705.507507,515.146973 703.223938,514.247559 
	C696.948914,511.776062 690.362183,510.105774 683.932678,508.014343 
	C675.145935,505.156158 668.620300,497.633484 667.958008,490.362091 
	C666.887146,478.605225 669.658447,468.591339 680.984558,463.083160 
	C695.298401,456.121979 709.611816,455.472931 723.427368,464.808319 
	C731.909790,470.540009 734.349976,478.811981 733.957397,488.731323 
	C726.645020,488.731323 719.559570,488.731323 712.474915,488.731323 
	C710.963257,478.610138 704.184692,473.650940 695.858398,477.164307 
	C693.446228,478.182129 690.426270,481.316833 690.422607,483.485626 
	C690.419067,485.657898 693.434692,488.672821 695.842346,489.830017 
	C700.291626,491.968445 705.263306,493.019653 710.370300,494.734772 
z"/>
<path fill="#FFE51F" opacity="1.000000" stroke="none" 
	d="
M504.693909,537.748657 
	C511.614258,525.061707 518.292664,512.676025 524.960571,500.284821 
	C531.934265,487.325378 538.851379,474.334930 545.946838,461.442596 
	C546.571167,460.308197 548.309937,459.157288 549.572205,459.110046 
	C555.890686,458.873444 562.233276,458.815094 568.541138,459.165924 
	C569.753845,459.233337 571.616516,461.264893 571.878967,462.638794 
	C574.252380,475.063751 576.337524,487.543732 578.504395,500.008087 
	C580.671326,512.472961 582.832336,524.938843 585.003052,537.403015 
	C585.357361,539.437439 585.748291,541.465576 586.175781,543.787109 
	C578.312988,543.787109 570.886841,543.787109 563.486816,543.787109 
	C562.974915,540.769104 561.867920,537.849121 562.137024,535.062012 
	C562.663452,529.609558 560.220154,528.640625 555.482422,528.910767 
	C549.175598,529.270386 542.825073,528.832153 536.510986,529.121277 
	C534.994629,529.190735 532.535400,530.513977 532.226746,531.705444 
	C529.401672,542.610657 522.383667,545.945984 511.828033,544.082947 
	C508.765961,543.542542 505.527771,544.000000 501.764191,544.000000 
	C502.777588,541.751831 503.612488,539.899658 504.693909,537.748657 
M555.998596,490.036346 
	C555.657104,489.116455 555.315674,488.196564 554.703979,486.548584 
	C550.473877,495.083649 546.651855,502.795349 542.684570,510.800110 
	C548.555115,510.800110 553.678650,510.800110 558.704834,510.800110 
	C557.786560,504.034973 556.893250,497.453522 555.998596,490.036346 
z"/>
<path fill="#FFE51F" opacity="1.000000" stroke="none" 
	d="
M47.633568,490.793854 
	C58.194664,490.960449 68.335442,490.960449 79.245834,490.960449 
	C78.052773,497.488495 76.938507,503.585449 75.766174,510.000092 
	C66.323189,510.000092 57.018585,510.099274 47.718124,509.946533 
	C44.446907,509.892792 42.921417,510.641449 42.870888,514.344421 
	C42.825359,517.681152 41.689945,521.003113 40.926506,524.884216 
	C52.988129,524.884216 64.865654,524.884216 77.280060,524.884216 
	C76.057442,531.516541 74.947418,537.538147 73.797630,543.775391 
	C54.366264,543.775391 34.927803,543.775391 15.179193,543.775391 
	C20.173523,515.537903 25.151276,487.394104 30.134758,459.217926 
	C49.558884,459.217926 68.657967,459.217926 88.179245,459.217926 
	C87.034378,465.853851 85.937202,472.213318 84.798004,478.816406 
	C73.144493,478.816406 61.518639,478.816406 49.392414,478.816406 
	C48.648182,482.850067 47.930717,486.738678 47.633568,490.793854 
z"/>
<path fill="#FFE51F" opacity="1.000000" stroke="none" 
	d="
M279.048553,491.000244 
	C286.515686,491.000244 293.491760,491.000244 301.237701,491.000244 
	C300.052765,497.482941 298.938629,503.578339 297.764832,510.000092 
	C288.338348,510.000092 279.035828,510.095947 269.737183,509.947968 
	C266.490845,509.896301 264.917450,510.597107 264.870728,514.324097 
	C264.828888,517.659729 263.692719,520.981689 262.930115,524.866150 
	C274.976837,524.866150 286.847473,524.866150 299.286652,524.866150 
	C298.034821,531.607910 296.899139,537.724060 295.757019,543.875000 
	C276.103455,543.875000 256.815491,543.875000 237.159546,543.875000 
	C242.167847,515.555603 247.143585,487.420441 252.134140,459.201416 
	C271.504822,459.201416 290.601013,459.201416 310.165588,459.201416 
	C309.003143,465.927551 307.887878,472.380737 306.740082,479.022217 
	C294.768860,479.022217 283.144501,479.022217 271.285492,479.022217 
	C270.561249,482.997803 269.873871,486.770874 269.103394,491.000244 
	C272.311951,491.000244 275.434723,491.000244 279.048553,491.000244 
z"/>
<path fill="#FFE51F" opacity="1.000000" stroke="none" 
	d="
M469.852356,480.000031 
	C462.733521,480.000031 456.099426,480.000031 449.717987,480.000031 
	C446.446289,497.572205 443.240540,514.762329 440.051208,531.955383 
	C439.666138,534.031433 438.874786,536.185608 439.125610,538.197021 
	C439.847229,543.983948 436.590424,544.275635 432.226105,544.061462 
	C426.940979,543.802124 421.633423,544.000000 415.643616,544.000000 
	C419.427277,522.459900 423.120361,501.435364 426.875610,480.056915 
	C418.692627,480.056915 410.573700,480.056915 402.026794,480.056915 
	C403.172394,472.996185 404.253021,466.336121 405.391113,459.321625 
	C429.331696,459.321625 453.552185,459.321625 477.943878,459.321625 
	C476.820557,466.125397 475.715515,472.818390 474.561066,479.810577 
	C473.258240,479.869019 471.797668,479.934509 469.852356,480.000031 
z"/>
<path fill="#FFE51F" opacity="1.000000" stroke="none" 
	d="
M601.997070,499.942535 
	C604.376160,486.106232 606.752014,472.712433 609.183777,459.003418 
	C615.162903,459.003418 620.968689,458.973267 626.773987,459.015198 
	C630.041077,459.038788 631.595520,460.672852 630.988708,463.990204 
	C628.480347,477.704590 625.925659,491.410553 623.427856,505.126862 
	C622.325378,511.181030 621.317932,517.252441 620.171082,523.871887 
	C631.322205,523.871887 642.503113,523.871887 654.457642,523.871887 
	C653.225708,530.902344 652.113403,537.250305 650.968567,543.783875 
	C632.046143,543.783875 613.268799,543.783875 594.118225,543.783875 
	C596.756775,529.243652 599.375305,514.814331 601.997070,499.942535 
z"/>
<path fill="#FFE51F" opacity="1.000000" stroke="none" 
	d="
M496.966980,526.821289 
	C495.841705,532.777039 494.742828,538.291260 493.630493,543.872864 
	C486.113831,543.872864 478.815735,543.872864 471.161896,543.872864 
	C476.171265,515.547546 481.148071,487.406525 486.171478,459.001770 
	C492.074341,459.001770 497.717468,459.053619 503.359100,458.984100 
	C507.311005,458.935425 508.635773,460.961365 507.969879,464.573822 
	C504.678497,482.428986 501.330994,500.273834 498.057190,518.132202 
	C497.558075,520.854919 497.340912,523.629272 496.966980,526.821289 
z"/>
<path fill="#000000" opacity="1.000000" stroke="none" 
	d="
M555.999268,490.454224 
	C556.893250,497.453522 557.786560,504.034973 558.704834,510.800110 
	C553.678650,510.800110 548.555115,510.800110 542.684570,510.800110 
	C546.651855,502.795349 550.473877,495.083649 554.703979,486.548584 
	C555.315674,488.196564 555.657104,489.116455 555.999268,490.454224 
z"/>
</svg>