<svg xmlns="http://www.w3.org/2000/svg" width="698" height="269" viewBox="0 0 698 269"><g fill="#faaa00" fill-rule="evenodd" transform="translate(.74)"><path d="M676.27,120.71 L696.85,10.5 C677.88,3.62 651.08,0.02 628.77,0 C597.84,0 571.7,12.2 551.06,36.28 C530.87,60.15 520.64,89.2 520.64,122.65 C520.64,162.89 544.3,186.91 583.93,186.91 C602.27,186.91 618.4,181.52 631.92,170.88 C636.33,179.37 642.53,183.67 650.38,183.67 L688.01,183.67 C688.86,183.67 689.72,183.41 690.36,182.84 C692.33,181.1 692.42,178.47 690.89,176.73 C679.01,163.21 673.54,142.21 676.27,120.71 M669.37,45.88 C669.99,46.08 669.91,47.05 669.25,47.05 C619.02,47.05 642.45,144.12 592.32,144.12 C557.07,144.12 574.15,15.81 669.37,45.88 M495.08,4.98 L440.07,98.95 L413.63,4.27 C401.43,-0.35 370.46,4.22 362.88,11.76 L416.74,183.96 L438.47,183.96 L550.48,9.12 C542.99,2.17 501.83,0.5 495.08,4.98 M119.61,0.27 C100.85,0.27 85.04,4.76 71.4,13.98 C68.41,5.69 63.05,1.02 56.37,1.02 L21.55,1.02 C20.89,1.02 20.22,1.21 19.7,1.61 C17.95,2.96 17.76,5.19 18.95,6.7 C25.88,15.53 28.38,33.17 25.18,50.6 L0,183.94 L49.96,183.94 L73.13,59.57 C82.52,49.85 93.38,44.92 105.5,44.92 C119.49,44.7 128.81,50.31 122.95,74.84 L102.52,183.94 L155.13,183.94 L175.06,76.56 C184.39,24.57 164.27,0.7 119.61,0.27 M289.67,0.96 C259.68,0.96 234.54,12.19 214.93,34.34 C195.51,56.29 185.66,83.49 185.66,115.17 C185.66,138.09 192.24,156.02 205.21,168.47 C218.11,180.86 236.17,187.14 258.89,187.14 C289.53,187.14 314.9,175.84 334.29,153.56 C353.48,131.52 363.21,103.96 363.21,71.67 C363.21,49.38 356.69,31.82 343.82,19.46 C331.02,7.2 312.8,0.96 289.67,0.96 M297.1,123.44 C288.65,136.86 277.59,143.39 263.29,143.39 C245.96,143.39 238.23,134.11 238.23,113.31 C238.23,94.77 242.8,78.34 251.81,64.45 C260.41,51.2 271.41,44.75 285.43,44.75 C302.76,44.75 310.49,53.4 310.49,72.79 C310.49,92.29 305.99,109.33 297.1,123.44"></path><path fill="#faaa00" fill-rule="nonzero" d="M42.14,229.96 C42.14,230.48 42.12,230.98 42.1,231.49 C42,232.64 41.29,233.16 40.22,233.16 L34.72,233.16 L7.51,233.16 C8.76,240.86 14.42,245.24 21.84,245.24 C26.62,245.24 30.41,243.15 32.35,240.27 C32.94,239.54 33.54,239.12 34.5,239.12 L38.51,239.1 C39.83,239.1 40.54,239.85 40.06,240.94 C37.11,247.52 30.26,251.78 21.74,251.78 C8.68,251.78 0.01,242.42 0.01,229.84 C0.01,217.51 8.64,207.899986 21.66,207.899986 C34.28,207.89 42.14,218.22 42.14,229.96 Z M34.75,226.76 C33.64,218.57 27.88,214.68 21.62,214.68 C13.86,214.68 8.62,219.52 7.48,226.76 L34.75,226.76 Z M69.77,207.89 C77.54,207.89 83.77,213.78 83.77,223.6 L83.77,248.95 C83.77,250.1 83.14,250.73 81.99,250.73 L78.27,250.73 C77.12,250.73 76.49,250.1 76.49,248.95 L76.49,223.88 C76.49,217.88 72.81,214.79 67.82,214.79 C62.62,214.79 57.39,217.94 57.39,226.95 L57.39,248.95 C57.39,250.1 56.76,250.73 55.61,250.73 L51.89,250.73 C50.74,250.73 50.11,250.1 50.11,248.95 L50.11,210.71 C50.11,209.56 50.74,208.93 51.89,208.93 L55.61,208.93 C56.76,208.93 57.39,209.56 57.39,210.71 L57.39,214.08 C60.39,209.54 64.72,207.89 69.77,207.89 L69.77,207.89 Z M133.59,229.96 C133.59,230.48 133.57,230.98 133.55,231.49 C133.45,232.64 132.74,233.16 131.67,233.16 L126.17,233.16 L98.95,233.16 C100.2,240.86 105.86,245.24 113.28,245.24 C118.06,245.24 121.85,243.15 123.79,240.27 C124.38,239.54 124.98,239.12 125.94,239.12 L129.95,239.1 C131.27,239.1 131.98,239.85 131.5,240.94 C128.55,247.52 121.7,251.78 113.18,251.78 C100.12,251.78 91.45,242.42 91.45,229.84 C91.45,217.51 100.08,207.899986 113.1,207.899986 C125.73,207.89 133.59,218.22 133.59,229.96 Z M126.2,226.76 C125.09,218.57 119.33,214.68 113.07,214.68 C105.31,214.68 100.07,219.52 98.93,226.76 L126.2,226.76 Z M159.67,208.33 C160.84,208.2 161.47,208.87 161.47,210.02 L161.47,214 C161.47,215.09 161.01,215.76 160.24,215.76 C154.37,216.03 148.85,219.38 148.85,228.38 L148.85,248.96 C148.85,250.11 148.22,250.74 147.07,250.74 L143.35,250.74 C142.2,250.74 141.57,250.11 141.57,248.96 L141.57,210.72 C141.57,209.57 142.2,208.94 143.35,208.94 L147.07,208.94 C148.22,208.94 148.85,209.57 148.85,210.72 L148.85,215.26 C151.41,210.65 155.28,208.73 159.67,208.33 L159.67,208.33 Z M208.21,210.72 L208.21,248.96 C208.21,262 198.06,268.5 187.11,268.5 C177.39,268.5 168.12,262.84 166.93,254.38 C166.85,253.15 167.56,252.52 168.71,252.52 L172.45,252.52 C173.52,252.52 174.04,253.06 174.33,254.11 C175.38,257.81 179.89,261.74 187.12,261.74 C196.11,261.74 201.04,256.85 201.04,248.97 L201.04,243.16 C197.72,248.19 192.28,251.37 185.18,251.37 C173.6,251.37 164.01,241.82 164.01,229.64 C164.01,217.46 173.6,207.91 185.18,207.91 C192.28,207.91 197.72,211.09 201.04,216.12 L201.04,210.73 C201.04,209.58 201.67,208.95 202.82,208.95 L206.46,208.95 C207.58,208.94 208.21,209.57 208.21,210.72 Z M201.02,229.62 C201.02,221.22 194.59,214.78 186.14,214.78 C177.7,214.78 171.26,221.22 171.26,229.62 C171.26,238.02 177.7,244.46 186.14,244.46 C194.59,244.46 201.02,238.02 201.02,229.62 Z M247.06,208.94 L251.13,208.94 C252.38,208.94 253.01,209.71 252.57,210.97 L233.33,266.03 C233,267.01 232.26,267.45 231.28,267.45 L227.21,267.45 C225.96,267.45 225.33,266.68 225.77,265.42 L231.04,250.31 L215.26,210.99 C214.76,209.76 215.3,208.94 216.62,208.94 L220.63,208.94 C221.61,208.94 222.3,209.34 222.66,210.3 L234.67,240.22 L245.03,210.38 C245.37,209.4 246.08,208.94 247.06,208.94 Z"></path></g></svg>
